<svg xmlns="http://www.w3.org/2000/svg" xmlns:xlink="http://www.w3.org/1999/xlink" width="516" zoomAndPan="magnify" viewBox="0 0 386.88 212.249992" height="283" preserveAspectRatio="xMidYMid meet" version="1.0"><defs><filter x="0%" y="0%" width="100%" height="100%" id="eea524f8bf"><feColorMatrix values="0 0 0 0 1 0 0 0 0 1 0 0 0 0 1 0 0 0 1 0" color-interpolation-filters="sRGB"/></filter><g/><clipPath id="2955dd26b0"><path d="M 356 178 L 386.140625 178 L 386.140625 211.503906 L 356 211.503906 Z M 356 178 " clip-rule="nonzero"/></clipPath><mask id="b5817ccffb"><g filter="url(#eea524f8bf)"><rect x="-38.688" width="464.256" fill="#000000" y="-21.224999" height="254.69999" fill-opacity="0.45"/></g></mask><clipPath id="f61df3efc0"><path d="M 0.246094 0.601562 L 30.035156 0.601562 L 30.035156 33.089844 L 0.246094 33.089844 Z M 0.246094 0.601562 " clip-rule="nonzero"/></clipPath><clipPath id="23a79fd8dd"><path d="M 15.140625 0.601562 C 6.914062 0.601562 0.246094 7.875 0.246094 16.847656 C 0.246094 25.816406 6.914062 33.089844 15.140625 33.089844 C 23.367188 33.089844 30.035156 25.816406 30.035156 16.847656 C 30.035156 7.875 23.367188 0.601562 15.140625 0.601562 Z M 15.140625 0.601562 " clip-rule="nonzero"/></clipPath><clipPath id="b4460065d2"><rect x="0" width="31" y="0" height="34"/></clipPath><mask id="f252bd324b"><g filter="url(#eea524f8bf)"><rect x="-38.688" width="464.256" fill="#000000" y="-21.224999" height="254.69999" fill-opacity="0.43"/></g></mask><clipPath id="093733d7a1"><path d="M 0.332031 1.039062 L 19.945312 1.039062 L 19.945312 20.652344 L 0.332031 20.652344 Z M 0.332031 1.039062 " clip-rule="nonzero"/></clipPath><clipPath id="0cfac9dc3f"><path d="M 10.140625 1.039062 C 4.722656 1.039062 0.332031 5.429688 0.332031 10.847656 C 0.332031 16.261719 4.722656 20.652344 10.140625 20.652344 C 15.554688 20.652344 19.945312 16.261719 19.945312 10.847656 C 19.945312 5.429688 15.554688 1.039062 10.140625 1.039062 Z M 10.140625 1.039062 " clip-rule="nonzero"/></clipPath><clipPath id="8c9983aa0c"><rect x="0" width="21" y="0" height="21"/></clipPath></defs><path stroke-linecap="butt" transform="matrix(0.746988, -0.0235531, 0.0235531, 0.746988, 290.190063, 194.098719)" fill="none" stroke-linejoin="miter" d="M 0.00155929 1.002659 L 95.18071 1.002096 " stroke="#ffffff" stroke-width="2" stroke-opacity="1" stroke-miterlimit="4"/><path stroke-linecap="butt" transform="matrix(-0.193719, -0.721816, 0.721816, -0.193719, 289.484539, 193.539278)" fill="none" stroke-linejoin="miter" d="M 0.0021027 1.0015 L 237.657038 1.000542 " stroke="#ffffff" stroke-width="2" stroke-opacity="1" stroke-miterlimit="4"/><path stroke-linecap="butt" transform="matrix(0.747335, 0.00606191, -0.00606191, 0.747335, 152.04386, 20.312525)" fill="none" stroke-linejoin="miter" d="M 7.502309 1.000175 L 123.288826 1.001832 " stroke="#ffffff" stroke-width="2" stroke-opacity="1" stroke-miterlimit="4"/><path stroke-linecap="round" transform="matrix(0.747335, 0.00606191, -0.00606191, 0.747335, 152.04386, 20.312525)" fill="none" stroke-linejoin="round" d="M 1.000037 1.000648 C 1.002277 -0.6563 2.345147 -2.000055 4.002096 -1.997814 C 5.659002 -2.0008 6.99753 -0.657888 7.000516 0.999019 C 6.998275 2.655967 5.655405 3.999722 3.998457 3.997481 C 2.341551 4.000467 0.997796 2.657597 1.000037 1.000648 " stroke="#ffffff" stroke-width="2" stroke-opacity="1" stroke-miterlimit="4"/><g clip-path="url(#2955dd26b0)"><g mask="url(#b5817ccffb)"><g transform="matrix(1, 0, 0, 1, 356, 178)"><g clip-path="url(#b4460065d2)"><g clip-path="url(#f61df3efc0)"><g clip-path="url(#23a79fd8dd)"><path fill="#5ce1e6" d="M 0.246094 0.601562 L 30.035156 0.601562 L 30.035156 33.089844 L 0.246094 33.089844 Z M 0.246094 0.601562 " fill-opacity="1" fill-rule="nonzero"/></g></g></g></g></g></g><g mask="url(#f252bd324b)"><g transform="matrix(1, 0, 0, 1, 361, 184)"><g clip-path="url(#8c9983aa0c)"><g clip-path="url(#093733d7a1)"><g clip-path="url(#0cfac9dc3f)"><path fill="#ffffff" d="M 0.332031 1.039062 L 19.945312 1.039062 L 19.945312 20.652344 L 0.332031 20.652344 Z M 0.332031 1.039062 " fill-opacity="1" fill-rule="nonzero"/></g></g></g></g></g><g fill="#ffffff" fill-opacity="1"><g transform="translate(38.905702, 30.401829)"><g><path d="M 2.0625 0 L 2.0625 -18.375 L 8.71875 -18.375 C 11.125 -18.375 12.910156 -17.960938 14.078125 -17.140625 C 15.242188 -16.316406 15.828125 -15.125 15.828125 -13.5625 C 15.828125 -12.644531 15.59375 -11.847656 15.125 -11.171875 C 14.65625 -10.503906 13.828125 -9.921875 12.640625 -9.421875 C 13.410156 -9.222656 14.03125 -8.957031 14.5 -8.625 C 14.976562 -8.300781 15.34375 -7.9375 15.59375 -7.53125 C 15.851562 -7.125 16.023438 -6.703125 16.109375 -6.265625 C 16.203125 -5.835938 16.25 -5.410156 16.25 -4.984375 C 16.25 -3.285156 15.671875 -2.03125 14.515625 -1.21875 C 13.367188 -0.40625 11.539062 0 9.03125 0 Z M 5.765625 -2.875 L 9.09375 -2.875 C 10.21875 -2.875 11.066406 -3.097656 11.640625 -3.546875 C 12.210938 -3.992188 12.5 -4.59375 12.5 -5.34375 C 12.5 -5.894531 12.359375 -6.351562 12.078125 -6.71875 C 11.796875 -7.082031 11.414062 -7.359375 10.9375 -7.546875 C 10.457031 -7.734375 9.910156 -7.828125 9.296875 -7.828125 L 5.765625 -7.828125 Z M 5.765625 -10.78125 L 9.296875 -10.78125 C 9.679688 -10.78125 10.050781 -10.820312 10.40625 -10.90625 C 10.757812 -11 11.070312 -11.140625 11.34375 -11.328125 C 11.613281 -11.515625 11.828125 -11.753906 11.984375 -12.046875 C 12.148438 -12.335938 12.234375 -12.679688 12.234375 -13.078125 C 12.234375 -13.878906 11.9375 -14.484375 11.34375 -14.890625 C 10.75 -15.296875 9.984375 -15.5 9.046875 -15.5 L 5.765625 -15.5 Z M 5.765625 -10.78125 "/></g></g></g><g fill="#ffffff" fill-opacity="1"><g transform="translate(56.307003, 30.401829)"><g><path d="M 5.40625 0.25 C 4.5625 0.25 3.804688 0.09375 3.140625 -0.21875 C 2.472656 -0.53125 1.941406 -0.984375 1.546875 -1.578125 C 1.160156 -2.179688 0.96875 -2.910156 0.96875 -3.765625 C 0.96875 -5.203125 1.503906 -6.296875 2.578125 -7.046875 C 3.648438 -7.796875 5.347656 -8.1875 7.671875 -8.21875 L 9.3125 -8.234375 L 9.3125 -9.03125 C 9.3125 -9.625 9.132812 -10.082031 8.78125 -10.40625 C 8.4375 -10.738281 7.894531 -10.898438 7.15625 -10.890625 C 6.613281 -10.878906 6.097656 -10.75 5.609375 -10.5 C 5.117188 -10.257812 4.785156 -9.835938 4.609375 -9.234375 L 1.53125 -9.234375 C 1.582031 -10.179688 1.851562 -10.960938 2.34375 -11.578125 C 2.84375 -12.191406 3.523438 -12.644531 4.390625 -12.9375 C 5.253906 -13.238281 6.234375 -13.390625 7.328125 -13.390625 C 8.671875 -13.390625 9.75 -13.222656 10.5625 -12.890625 C 11.375 -12.554688 11.960938 -12.078125 12.328125 -11.453125 C 12.691406 -10.835938 12.875 -10.097656 12.875 -9.234375 L 12.875 0 L 9.78125 0 L 9.46875 -2.265625 C 9.019531 -1.316406 8.457031 -0.660156 7.78125 -0.296875 C 7.113281 0.0664062 6.320312 0.25 5.40625 0.25 Z M 6.640625 -2.1875 C 6.984375 -2.1875 7.3125 -2.25 7.625 -2.375 C 7.945312 -2.5 8.234375 -2.660156 8.484375 -2.859375 C 8.734375 -3.066406 8.929688 -3.300781 9.078125 -3.5625 C 9.234375 -3.832031 9.3125 -4.109375 9.3125 -4.390625 L 9.3125 -6.328125 L 7.984375 -6.296875 C 7.359375 -6.296875 6.78125 -6.222656 6.25 -6.078125 C 5.71875 -5.941406 5.285156 -5.71875 4.953125 -5.40625 C 4.628906 -5.09375 4.46875 -4.664062 4.46875 -4.125 C 4.46875 -3.519531 4.679688 -3.046875 5.109375 -2.703125 C 5.535156 -2.359375 6.046875 -2.1875 6.640625 -2.1875 Z M 6.640625 -2.1875 "/></g></g></g><g fill="#ffffff" fill-opacity="1"><g transform="translate(70.886469, 30.401829)"><g><path d="M 9.59375 -10.5625 L 6.671875 -10.5625 L 6.703125 -3.5625 C 6.703125 -3.238281 6.738281 -3 6.8125 -2.84375 C 6.894531 -2.6875 7.023438 -2.582031 7.203125 -2.53125 C 7.378906 -2.488281 7.601562 -2.46875 7.875 -2.46875 L 9.640625 -2.46875 L 9.640625 -0.171875 C 9.460938 -0.0976562 9.191406 -0.03125 8.828125 0.03125 C 8.472656 0.101562 7.972656 0.140625 7.328125 0.140625 C 6.179688 0.140625 5.289062 -0.00390625 4.65625 -0.296875 C 4.03125 -0.597656 3.59375 -1.015625 3.34375 -1.546875 C 3.09375 -2.078125 2.96875 -2.695312 2.96875 -3.40625 L 2.96875 -10.5625 L 0.84375 -10.5625 L 0.84375 -13.140625 L 3.09375 -13.140625 L 4.03125 -17.109375 L 6.671875 -17.109375 L 6.671875 -13.15625 L 9.59375 -13.15625 Z M 9.59375 -10.5625 "/></g></g></g><g fill="#ffffff" fill-opacity="1"><g transform="translate(81.627225, 30.401829)"><g><path d="M 9.59375 -10.5625 L 6.671875 -10.5625 L 6.703125 -3.5625 C 6.703125 -3.238281 6.738281 -3 6.8125 -2.84375 C 6.894531 -2.6875 7.023438 -2.582031 7.203125 -2.53125 C 7.378906 -2.488281 7.601562 -2.46875 7.875 -2.46875 L 9.640625 -2.46875 L 9.640625 -0.171875 C 9.460938 -0.0976562 9.191406 -0.03125 8.828125 0.03125 C 8.472656 0.101562 7.972656 0.140625 7.328125 0.140625 C 6.179688 0.140625 5.289062 -0.00390625 4.65625 -0.296875 C 4.03125 -0.597656 3.59375 -1.015625 3.34375 -1.546875 C 3.09375 -2.078125 2.96875 -2.695312 2.96875 -3.40625 L 2.96875 -10.5625 L 0.84375 -10.5625 L 0.84375 -13.140625 L 3.09375 -13.140625 L 4.03125 -17.109375 L 6.671875 -17.109375 L 6.671875 -13.15625 L 9.59375 -13.15625 Z M 9.59375 -10.5625 "/></g></g></g><g fill="#ffffff" fill-opacity="1"><g transform="translate(92.36798, 30.401829)"><g><path d="M 4.640625 -5.71875 C 4.628906 -5.050781 4.734375 -4.46875 4.953125 -3.96875 C 5.171875 -3.476562 5.488281 -3.097656 5.90625 -2.828125 C 6.332031 -2.554688 6.84375 -2.421875 7.4375 -2.421875 C 8.070312 -2.421875 8.628906 -2.554688 9.109375 -2.828125 C 9.585938 -3.097656 9.921875 -3.546875 10.109375 -4.171875 L 13.453125 -4.171875 C 13.304688 -3.234375 12.929688 -2.429688 12.328125 -1.765625 C 11.734375 -1.109375 11.007812 -0.609375 10.15625 -0.265625 C 9.3125 0.078125 8.4375 0.25 7.53125 0.25 C 6.226562 0.25 5.082031 -0.0195312 4.09375 -0.5625 C 3.113281 -1.113281 2.347656 -1.890625 1.796875 -2.890625 C 1.242188 -3.890625 0.96875 -5.066406 0.96875 -6.421875 C 0.96875 -7.734375 1.21875 -8.914062 1.71875 -9.96875 C 2.21875 -11.019531 2.941406 -11.851562 3.890625 -12.46875 C 4.847656 -13.082031 5.992188 -13.390625 7.328125 -13.390625 C 8.671875 -13.390625 9.796875 -13.109375 10.703125 -12.546875 C 11.617188 -11.984375 12.304688 -11.195312 12.765625 -10.1875 C 13.234375 -9.1875 13.46875 -8.03125 13.46875 -6.71875 L 13.46875 -5.71875 Z M 4.625 -7.9375 L 9.984375 -7.9375 C 9.984375 -8.457031 9.882812 -8.9375 9.6875 -9.375 C 9.5 -9.820312 9.207031 -10.171875 8.8125 -10.421875 C 8.414062 -10.671875 7.921875 -10.796875 7.328125 -10.796875 C 6.753906 -10.796875 6.265625 -10.660156 5.859375 -10.390625 C 5.460938 -10.117188 5.15625 -9.757812 4.9375 -9.3125 C 4.726562 -8.875 4.625 -8.414062 4.625 -7.9375 Z M 4.625 -7.9375 "/></g></g></g><g fill="#ffffff" fill-opacity="1"><g transform="translate(106.82034, 30.401829)"><g><path d="M 1.59375 0 L 1.59375 -13.140625 L 5.15625 -13.140625 L 5.15625 -10.03125 C 5.375 -10.695312 5.675781 -11.28125 6.0625 -11.78125 C 6.445312 -12.289062 6.910156 -12.6875 7.453125 -12.96875 C 8.003906 -13.25 8.628906 -13.390625 9.328125 -13.390625 C 9.453125 -13.390625 9.566406 -13.382812 9.671875 -13.375 C 9.773438 -13.363281 9.851562 -13.347656 9.90625 -13.328125 L 9.90625 -9.78125 C 9.820312 -9.820312 9.726562 -9.84375 9.625 -9.84375 C 9.519531 -9.851562 9.425781 -9.863281 9.34375 -9.875 C 8.613281 -9.9375 7.988281 -9.914062 7.46875 -9.8125 C 6.957031 -9.707031 6.539062 -9.53125 6.21875 -9.28125 C 5.894531 -9.039062 5.660156 -8.742188 5.515625 -8.390625 C 5.367188 -8.035156 5.296875 -7.632812 5.296875 -7.1875 L 5.296875 0 Z M 1.59375 0 "/></g></g></g><g fill="#ffffff" fill-opacity="1"><g transform="translate(117.154345, 30.401829)"><g><path d="M 3.640625 4.1875 C 2.734375 4.1875 2.097656 4.113281 1.734375 3.96875 C 1.367188 3.820312 1.1875 3.75 1.1875 3.75 L 1.1875 1.390625 L 2.484375 1.4375 C 3.046875 1.46875 3.5 1.4375 3.84375 1.34375 C 4.195312 1.257812 4.460938 1.144531 4.640625 1 C 4.828125 0.851562 4.957031 0.703125 5.03125 0.546875 C 5.101562 0.390625 5.160156 0.265625 5.203125 0.171875 L 5.4375 -0.546875 L 0.328125 -13.140625 L 4 -13.140625 L 7.15625 -4.578125 L 10.34375 -13.140625 L 13.96875 -13.140625 L 8.640625 0.078125 C 8.179688 1.191406 7.695312 2.046875 7.1875 2.640625 C 6.6875 3.234375 6.140625 3.640625 5.546875 3.859375 C 4.960938 4.078125 4.328125 4.1875 3.640625 4.1875 Z M 3.640625 4.1875 "/></g></g></g><g fill="#a6a6a6" fill-opacity="1"><g transform="translate(24.544695, 61.410155)"><g><path d="M 1.1875 -9.015625 L 6.8125 -9.015625 L 6.796875 -8 L 2.375 -8 L 2.375 -5.03125 L 6.359375 -5.03125 L 6.359375 -4.03125 L 2.375 -4.03125 L 2.375 0 L 1.1875 0 Z M 1.1875 -9.015625 "/></g></g></g><g fill="#a6a6a6" fill-opacity="1"><g transform="translate(31.952748, 61.410155)"><g><path d="M 3.515625 0.125 C 2.921875 0.125 2.398438 0 1.953125 -0.25 C 1.515625 -0.507812 1.171875 -0.882812 0.921875 -1.375 C 0.679688 -1.875 0.5625 -2.484375 0.5625 -3.203125 C 0.5625 -3.867188 0.671875 -4.457031 0.890625 -4.96875 C 1.117188 -5.476562 1.453125 -5.875 1.890625 -6.15625 C 2.335938 -6.4375 2.878906 -6.578125 3.515625 -6.578125 C 4.109375 -6.578125 4.625 -6.445312 5.0625 -6.1875 C 5.5 -5.925781 5.835938 -5.539062 6.078125 -5.03125 C 6.328125 -4.53125 6.453125 -3.921875 6.453125 -3.203125 C 6.453125 -2.546875 6.335938 -1.96875 6.109375 -1.46875 C 5.890625 -0.96875 5.5625 -0.578125 5.125 -0.296875 C 4.6875 -0.015625 4.148438 0.125 3.515625 0.125 Z M 3.515625 -0.78125 C 3.898438 -0.78125 4.222656 -0.878906 4.484375 -1.078125 C 4.753906 -1.273438 4.957031 -1.554688 5.09375 -1.921875 C 5.238281 -2.285156 5.3125 -2.71875 5.3125 -3.21875 C 5.3125 -3.6875 5.25 -4.101562 5.125 -4.46875 C 5 -4.832031 4.804688 -5.125 4.546875 -5.34375 C 4.285156 -5.5625 3.941406 -5.671875 3.515625 -5.671875 C 3.128906 -5.671875 2.800781 -5.570312 2.53125 -5.375 C 2.257812 -5.1875 2.050781 -4.90625 1.90625 -4.53125 C 1.769531 -4.164062 1.703125 -3.726562 1.703125 -3.21875 C 1.703125 -2.769531 1.765625 -2.359375 1.890625 -1.984375 C 2.015625 -1.617188 2.207031 -1.328125 2.46875 -1.109375 C 2.738281 -0.890625 3.085938 -0.78125 3.515625 -0.78125 Z M 3.515625 -0.78125 "/></g></g></g><g fill="#a6a6a6" fill-opacity="1"><g transform="translate(38.961714, 61.410155)"><g><path d="M 0.953125 0 L 0.953125 -6.453125 L 2.046875 -6.453125 L 2.046875 -5.203125 C 2.160156 -5.515625 2.3125 -5.769531 2.5 -5.96875 C 2.695312 -6.164062 2.921875 -6.316406 3.171875 -6.421875 C 3.421875 -6.523438 3.679688 -6.578125 3.953125 -6.578125 C 4.054688 -6.578125 4.148438 -6.566406 4.234375 -6.546875 C 4.328125 -6.535156 4.398438 -6.515625 4.453125 -6.484375 L 4.453125 -5.375 C 4.390625 -5.40625 4.304688 -5.425781 4.203125 -5.4375 C 4.109375 -5.445312 4.03125 -5.453125 3.96875 -5.453125 C 3.707031 -5.460938 3.460938 -5.441406 3.234375 -5.390625 C 3.015625 -5.347656 2.816406 -5.269531 2.640625 -5.15625 C 2.472656 -5.039062 2.335938 -4.882812 2.234375 -4.6875 C 2.140625 -4.5 2.09375 -4.273438 2.09375 -4.015625 L 2.09375 0 Z M 0.953125 0 "/></g></g></g><g fill="#a6a6a6" fill-opacity="1"><g transform="translate(43.794414, 61.410155)"><g/></g></g><g fill="#a6a6a6" fill-opacity="1"><g transform="translate(46.669094, 61.410155)"><g><path d="M 2.578125 0.078125 C 2.234375 0.078125 1.953125 0.03125 1.734375 -0.0625 C 1.523438 -0.15625 1.363281 -0.28125 1.25 -0.4375 C 1.132812 -0.601562 1.054688 -0.789062 1.015625 -1 C 0.972656 -1.21875 0.953125 -1.4375 0.953125 -1.65625 L 0.953125 -9.265625 L 2.09375 -9.265625 L 2.09375 -1.765625 C 2.09375 -1.441406 2.15625 -1.195312 2.28125 -1.03125 C 2.40625 -0.875 2.582031 -0.785156 2.8125 -0.765625 L 3.15625 -0.765625 L 3.15625 -0.015625 C 3.0625 0.015625 2.960938 0.0351562 2.859375 0.046875 C 2.753906 0.0664062 2.660156 0.078125 2.578125 0.078125 Z M 2.578125 0.078125 "/></g></g></g><g fill="#a6a6a6" fill-opacity="1"><g transform="translate(50.379353, 61.410155)"><g><path d="M 3.515625 0.125 C 2.921875 0.125 2.398438 0 1.953125 -0.25 C 1.515625 -0.507812 1.171875 -0.882812 0.921875 -1.375 C 0.679688 -1.875 0.5625 -2.484375 0.5625 -3.203125 C 0.5625 -3.867188 0.671875 -4.457031 0.890625 -4.96875 C 1.117188 -5.476562 1.453125 -5.875 1.890625 -6.15625 C 2.335938 -6.4375 2.878906 -6.578125 3.515625 -6.578125 C 4.109375 -6.578125 4.625 -6.445312 5.0625 -6.1875 C 5.5 -5.925781 5.835938 -5.539062 6.078125 -5.03125 C 6.328125 -4.53125 6.453125 -3.921875 6.453125 -3.203125 C 6.453125 -2.546875 6.335938 -1.96875 6.109375 -1.46875 C 5.890625 -0.96875 5.5625 -0.578125 5.125 -0.296875 C 4.6875 -0.015625 4.148438 0.125 3.515625 0.125 Z M 3.515625 -0.78125 C 3.898438 -0.78125 4.222656 -0.878906 4.484375 -1.078125 C 4.753906 -1.273438 4.957031 -1.554688 5.09375 -1.921875 C 5.238281 -2.285156 5.3125 -2.71875 5.3125 -3.21875 C 5.3125 -3.6875 5.25 -4.101562 5.125 -4.46875 C 5 -4.832031 4.804688 -5.125 4.546875 -5.34375 C 4.285156 -5.5625 3.941406 -5.671875 3.515625 -5.671875 C 3.128906 -5.671875 2.800781 -5.570312 2.53125 -5.375 C 2.257812 -5.1875 2.050781 -4.90625 1.90625 -4.53125 C 1.769531 -4.164062 1.703125 -3.726562 1.703125 -3.21875 C 1.703125 -2.769531 1.765625 -2.359375 1.890625 -1.984375 C 2.015625 -1.617188 2.207031 -1.328125 2.46875 -1.109375 C 2.738281 -0.890625 3.085938 -0.78125 3.515625 -0.78125 Z M 3.515625 -0.78125 "/></g></g></g><g fill="#a6a6a6" fill-opacity="1"><g transform="translate(57.388319, 61.410155)"><g><path d="M 0.953125 0 L 0.953125 -6.453125 L 2.0625 -6.453125 L 2.0625 -5.515625 C 2.164062 -5.691406 2.3125 -5.859375 2.5 -6.015625 C 2.6875 -6.171875 2.910156 -6.296875 3.171875 -6.390625 C 3.441406 -6.492188 3.75 -6.546875 4.09375 -6.546875 C 4.5 -6.546875 4.875 -6.460938 5.21875 -6.296875 C 5.5625 -6.128906 5.832031 -5.875 6.03125 -5.53125 C 6.238281 -5.195312 6.34375 -4.757812 6.34375 -4.21875 L 6.34375 0 L 5.1875 0 L 5.1875 -4.109375 C 5.1875 -4.609375 5.054688 -4.976562 4.796875 -5.21875 C 4.535156 -5.46875 4.191406 -5.59375 3.765625 -5.59375 C 3.472656 -5.59375 3.203125 -5.546875 2.953125 -5.453125 C 2.703125 -5.359375 2.492188 -5.210938 2.328125 -5.015625 C 2.171875 -4.828125 2.09375 -4.59375 2.09375 -4.3125 L 2.09375 0 Z M 0.953125 0 "/></g></g></g><g fill="#a6a6a6" fill-opacity="1"><g transform="translate(64.584365, 61.410155)"><g><path d="M 3.671875 2.125 C 2.660156 2.125 1.875 1.976562 1.3125 1.6875 C 0.75 1.394531 0.46875 0.976562 0.46875 0.4375 C 0.46875 0.207031 0.519531 0.0078125 0.625 -0.15625 C 0.726562 -0.320312 0.851562 -0.457031 1 -0.5625 C 1.15625 -0.675781 1.296875 -0.765625 1.421875 -0.828125 C 1.554688 -0.890625 1.640625 -0.9375 1.671875 -0.96875 C 1.609375 -1.007812 1.519531 -1.0625 1.40625 -1.125 C 1.300781 -1.1875 1.207031 -1.269531 1.125 -1.375 C 1.050781 -1.476562 1.015625 -1.613281 1.015625 -1.78125 C 1.015625 -1.976562 1.109375 -2.160156 1.296875 -2.328125 C 1.492188 -2.503906 1.78125 -2.632812 2.15625 -2.71875 C 1.769531 -2.90625 1.472656 -3.15625 1.265625 -3.46875 C 1.054688 -3.789062 0.953125 -4.132812 0.953125 -4.5 C 0.953125 -4.914062 1.0625 -5.273438 1.28125 -5.578125 C 1.507812 -5.890625 1.832031 -6.128906 2.25 -6.296875 C 2.675781 -6.460938 3.175781 -6.546875 3.75 -6.546875 C 4.164062 -6.546875 4.519531 -6.492188 4.8125 -6.390625 C 5.101562 -6.296875 5.367188 -6.160156 5.609375 -5.984375 C 5.671875 -6.015625 5.773438 -6.054688 5.921875 -6.109375 C 6.066406 -6.171875 6.226562 -6.238281 6.40625 -6.3125 C 6.582031 -6.382812 6.742188 -6.453125 6.890625 -6.515625 C 7.046875 -6.578125 7.164062 -6.628906 7.25 -6.671875 L 7.25 -5.59375 L 6.125 -5.390625 C 6.1875 -5.253906 6.234375 -5.109375 6.265625 -4.953125 C 6.304688 -4.796875 6.328125 -4.644531 6.328125 -4.5 C 6.328125 -4.125 6.226562 -3.78125 6.03125 -3.46875 C 5.832031 -3.164062 5.535156 -2.921875 5.140625 -2.734375 C 4.742188 -2.554688 4.242188 -2.46875 3.640625 -2.46875 C 3.597656 -2.46875 3.535156 -2.46875 3.453125 -2.46875 C 3.378906 -2.46875 3.316406 -2.472656 3.265625 -2.484375 C 2.816406 -2.472656 2.507812 -2.421875 2.34375 -2.328125 C 2.175781 -2.242188 2.09375 -2.148438 2.09375 -2.046875 C 2.09375 -1.929688 2.1875 -1.847656 2.375 -1.796875 C 2.5625 -1.753906 2.878906 -1.71875 3.328125 -1.6875 C 3.492188 -1.675781 3.695312 -1.664062 3.9375 -1.65625 C 4.175781 -1.644531 4.441406 -1.628906 4.734375 -1.609375 C 5.410156 -1.566406 5.929688 -1.390625 6.296875 -1.078125 C 6.660156 -0.773438 6.84375 -0.367188 6.84375 0.140625 C 6.84375 0.722656 6.582031 1.195312 6.0625 1.5625 C 5.539062 1.9375 4.742188 2.125 3.671875 2.125 Z M 3.875 1.390625 C 4.46875 1.390625 4.921875 1.300781 5.234375 1.125 C 5.554688 0.945312 5.71875 0.675781 5.71875 0.3125 C 5.71875 0.0507812 5.617188 -0.15625 5.421875 -0.3125 C 5.234375 -0.476562 4.941406 -0.578125 4.546875 -0.609375 L 2.734375 -0.71875 C 2.578125 -0.726562 2.410156 -0.6875 2.234375 -0.59375 C 2.054688 -0.507812 1.90625 -0.390625 1.78125 -0.234375 C 1.664062 -0.078125 1.609375 0.101562 1.609375 0.3125 C 1.609375 0.644531 1.789062 0.90625 2.15625 1.09375 C 2.53125 1.289062 3.101562 1.390625 3.875 1.390625 Z M 3.671875 -3.203125 C 4.140625 -3.203125 4.515625 -3.3125 4.796875 -3.53125 C 5.085938 -3.75 5.234375 -4.070312 5.234375 -4.5 C 5.234375 -4.9375 5.085938 -5.265625 4.796875 -5.484375 C 4.515625 -5.710938 4.140625 -5.828125 3.671875 -5.828125 C 3.203125 -5.828125 2.820312 -5.710938 2.53125 -5.484375 C 2.25 -5.253906 2.109375 -4.925781 2.109375 -4.5 C 2.109375 -4.09375 2.242188 -3.773438 2.515625 -3.546875 C 2.796875 -3.316406 3.179688 -3.203125 3.671875 -3.203125 Z M 3.671875 -3.203125 "/></g></g></g><g fill="#a6a6a6" fill-opacity="1"><g transform="translate(72.329149, 61.410155)"><g><path d="M 3.9375 -3.671875 L 3.9375 -2.765625 L 0.765625 -2.765625 L 0.765625 -3.671875 Z M 3.9375 -3.671875 "/></g></g></g><g fill="#a6a6a6" fill-opacity="1"><g transform="translate(77.037126, 61.410155)"><g><path d="M 2.578125 0.078125 C 2.234375 0.078125 1.953125 0.03125 1.734375 -0.0625 C 1.523438 -0.15625 1.363281 -0.28125 1.25 -0.4375 C 1.132812 -0.601562 1.054688 -0.789062 1.015625 -1 C 0.972656 -1.21875 0.953125 -1.4375 0.953125 -1.65625 L 0.953125 -9.265625 L 2.09375 -9.265625 L 2.09375 -1.765625 C 2.09375 -1.441406 2.15625 -1.195312 2.28125 -1.03125 C 2.40625 -0.875 2.582031 -0.785156 2.8125 -0.765625 L 3.15625 -0.765625 L 3.15625 -0.015625 C 3.0625 0.015625 2.960938 0.0351562 2.859375 0.046875 C 2.753906 0.0664062 2.660156 0.078125 2.578125 0.078125 Z M 2.578125 0.078125 "/></g></g></g><g fill="#a6a6a6" fill-opacity="1"><g transform="translate(80.747385, 61.410155)"><g><path d="M 2.734375 0.125 C 2.316406 0.125 1.945312 0.0507812 1.625 -0.09375 C 1.3125 -0.238281 1.0625 -0.453125 0.875 -0.734375 C 0.695312 -1.015625 0.609375 -1.351562 0.609375 -1.75 C 0.609375 -2.457031 0.859375 -2.984375 1.359375 -3.328125 C 1.859375 -3.679688 2.660156 -3.875 3.765625 -3.90625 L 4.90625 -3.9375 L 4.90625 -4.4375 C 4.90625 -4.832031 4.785156 -5.144531 4.546875 -5.375 C 4.316406 -5.601562 3.953125 -5.71875 3.453125 -5.71875 C 3.085938 -5.71875 2.765625 -5.628906 2.484375 -5.453125 C 2.203125 -5.285156 2.019531 -5.007812 1.9375 -4.625 L 0.921875 -4.625 C 0.941406 -5.039062 1.054688 -5.394531 1.265625 -5.6875 C 1.484375 -5.976562 1.78125 -6.195312 2.15625 -6.34375 C 2.539062 -6.5 2.992188 -6.578125 3.515625 -6.578125 C 4.078125 -6.578125 4.539062 -6.492188 4.90625 -6.328125 C 5.28125 -6.171875 5.554688 -5.9375 5.734375 -5.625 C 5.921875 -5.320312 6.015625 -4.945312 6.015625 -4.5 L 6.015625 0 L 5.03125 0 L 4.953125 -1.203125 C 4.703125 -0.703125 4.382812 -0.351562 4 -0.15625 C 3.613281 0.03125 3.191406 0.125 2.734375 0.125 Z M 3.09375 -0.703125 C 3.300781 -0.703125 3.507812 -0.738281 3.71875 -0.8125 C 3.9375 -0.894531 4.132812 -1.003906 4.3125 -1.140625 C 4.5 -1.273438 4.644531 -1.425781 4.75 -1.59375 C 4.851562 -1.769531 4.90625 -1.945312 4.90625 -2.125 L 4.90625 -3.21875 L 3.953125 -3.203125 C 3.460938 -3.191406 3.050781 -3.140625 2.71875 -3.046875 C 2.382812 -2.960938 2.132812 -2.820312 1.96875 -2.625 C 1.8125 -2.425781 1.734375 -2.171875 1.734375 -1.859375 C 1.734375 -1.492188 1.859375 -1.207031 2.109375 -1 C 2.359375 -0.800781 2.6875 -0.703125 3.09375 -0.703125 Z M 3.09375 -0.703125 "/></g></g></g><g fill="#a6a6a6" fill-opacity="1"><g transform="translate(87.787529, 61.410155)"><g><path d="M 3.234375 0.125 C 2.785156 0.125 2.367188 0.0546875 1.984375 -0.078125 C 1.609375 -0.222656 1.289062 -0.441406 1.03125 -0.734375 C 0.78125 -1.035156 0.625 -1.414062 0.5625 -1.875 L 1.609375 -1.875 C 1.660156 -1.625 1.757812 -1.410156 1.90625 -1.234375 C 2.0625 -1.066406 2.253906 -0.941406 2.484375 -0.859375 C 2.710938 -0.773438 2.960938 -0.734375 3.234375 -0.734375 C 3.671875 -0.734375 4.019531 -0.8125 4.28125 -0.96875 C 4.550781 -1.132812 4.6875 -1.390625 4.6875 -1.734375 C 4.6875 -1.960938 4.613281 -2.148438 4.46875 -2.296875 C 4.332031 -2.441406 4.117188 -2.546875 3.828125 -2.609375 L 2.5 -2.9375 C 1.976562 -3.0625 1.5625 -3.253906 1.25 -3.515625 C 0.9375 -3.785156 0.78125 -4.160156 0.78125 -4.640625 C 0.769531 -5.023438 0.859375 -5.359375 1.046875 -5.640625 C 1.234375 -5.929688 1.507812 -6.160156 1.875 -6.328125 C 2.238281 -6.492188 2.691406 -6.578125 3.234375 -6.578125 C 3.929688 -6.578125 4.492188 -6.414062 4.921875 -6.09375 C 5.359375 -5.78125 5.582031 -5.320312 5.59375 -4.71875 L 4.578125 -4.71875 C 4.535156 -5.03125 4.394531 -5.273438 4.15625 -5.453125 C 3.925781 -5.628906 3.613281 -5.71875 3.21875 -5.71875 C 2.8125 -5.71875 2.476562 -5.632812 2.21875 -5.46875 C 1.957031 -5.3125 1.828125 -5.0625 1.828125 -4.71875 C 1.828125 -4.488281 1.914062 -4.304688 2.09375 -4.171875 C 2.28125 -4.046875 2.554688 -3.9375 2.921875 -3.84375 L 4.203125 -3.515625 C 4.503906 -3.441406 4.75 -3.335938 4.9375 -3.203125 C 5.132812 -3.078125 5.289062 -2.9375 5.40625 -2.78125 C 5.519531 -2.625 5.597656 -2.457031 5.640625 -2.28125 C 5.691406 -2.113281 5.71875 -1.953125 5.71875 -1.796875 C 5.71875 -1.398438 5.617188 -1.054688 5.421875 -0.765625 C 5.222656 -0.484375 4.941406 -0.265625 4.578125 -0.109375 C 4.210938 0.046875 3.765625 0.125 3.234375 0.125 Z M 3.234375 0.125 "/></g></g></g><g fill="#a6a6a6" fill-opacity="1"><g transform="translate(94.166686, 61.410155)"><g><path d="M 4.3125 -5.609375 L 2.859375 -5.609375 L 2.859375 -1.59375 C 2.859375 -1.363281 2.878906 -1.195312 2.921875 -1.09375 C 2.972656 -0.988281 3.054688 -0.921875 3.171875 -0.890625 C 3.285156 -0.859375 3.441406 -0.84375 3.640625 -0.84375 L 4.359375 -0.84375 L 4.359375 -0.078125 C 4.273438 -0.046875 4.148438 -0.0195312 3.984375 0 C 3.828125 0.0195312 3.628906 0.03125 3.390625 0.03125 C 2.953125 0.03125 2.609375 -0.0234375 2.359375 -0.140625 C 2.117188 -0.265625 1.945312 -0.445312 1.84375 -0.6875 C 1.75 -0.925781 1.703125 -1.21875 1.703125 -1.5625 L 1.703125 -5.609375 L 0.65625 -5.609375 L 0.65625 -6.453125 L 1.734375 -6.453125 L 2.015625 -8.328125 L 2.859375 -8.328125 L 2.859375 -6.453125 L 4.3125 -6.453125 Z M 4.3125 -5.609375 "/></g></g></g><g fill="#a6a6a6" fill-opacity="1"><g transform="translate(99.186454, 61.410155)"><g><path d="M 2.203125 -6.453125 L 2.203125 0 L 1.078125 0 L 1.078125 -6.453125 Z M 2.21875 -9.015625 L 2.21875 -7.8125 L 1.046875 -7.8125 L 1.046875 -9.015625 Z M 2.21875 -9.015625 "/></g></g></g><g fill="#a6a6a6" fill-opacity="1"><g transform="translate(102.460222, 61.410155)"><g><path d="M 0.953125 0 L 0.953125 -6.453125 L 2.0625 -6.453125 L 2.0625 -5.515625 C 2.164062 -5.691406 2.3125 -5.859375 2.5 -6.015625 C 2.6875 -6.171875 2.910156 -6.296875 3.171875 -6.390625 C 3.441406 -6.492188 3.75 -6.546875 4.09375 -6.546875 C 4.5 -6.546875 4.875 -6.460938 5.21875 -6.296875 C 5.5625 -6.128906 5.832031 -5.875 6.03125 -5.53125 C 6.238281 -5.195312 6.34375 -4.757812 6.34375 -4.21875 L 6.34375 0 L 5.1875 0 L 5.1875 -4.109375 C 5.1875 -4.609375 5.054688 -4.976562 4.796875 -5.21875 C 4.535156 -5.46875 4.191406 -5.59375 3.765625 -5.59375 C 3.472656 -5.59375 3.203125 -5.546875 2.953125 -5.453125 C 2.703125 -5.359375 2.492188 -5.210938 2.328125 -5.015625 C 2.171875 -4.828125 2.09375 -4.59375 2.09375 -4.3125 L 2.09375 0 Z M 0.953125 0 "/></g></g></g><g fill="#a6a6a6" fill-opacity="1"><g transform="translate(109.656267, 61.410155)"><g><path d="M 3.671875 2.125 C 2.660156 2.125 1.875 1.976562 1.3125 1.6875 C 0.75 1.394531 0.46875 0.976562 0.46875 0.4375 C 0.46875 0.207031 0.519531 0.0078125 0.625 -0.15625 C 0.726562 -0.320312 0.851562 -0.457031 1 -0.5625 C 1.15625 -0.675781 1.296875 -0.765625 1.421875 -0.828125 C 1.554688 -0.890625 1.640625 -0.9375 1.671875 -0.96875 C 1.609375 -1.007812 1.519531 -1.0625 1.40625 -1.125 C 1.300781 -1.1875 1.207031 -1.269531 1.125 -1.375 C 1.050781 -1.476562 1.015625 -1.613281 1.015625 -1.78125 C 1.015625 -1.976562 1.109375 -2.160156 1.296875 -2.328125 C 1.492188 -2.503906 1.78125 -2.632812 2.15625 -2.71875 C 1.769531 -2.90625 1.472656 -3.15625 1.265625 -3.46875 C 1.054688 -3.789062 0.953125 -4.132812 0.953125 -4.5 C 0.953125 -4.914062 1.0625 -5.273438 1.28125 -5.578125 C 1.507812 -5.890625 1.832031 -6.128906 2.25 -6.296875 C 2.675781 -6.460938 3.175781 -6.546875 3.75 -6.546875 C 4.164062 -6.546875 4.519531 -6.492188 4.8125 -6.390625 C 5.101562 -6.296875 5.367188 -6.160156 5.609375 -5.984375 C 5.671875 -6.015625 5.773438 -6.054688 5.921875 -6.109375 C 6.066406 -6.171875 6.226562 -6.238281 6.40625 -6.3125 C 6.582031 -6.382812 6.742188 -6.453125 6.890625 -6.515625 C 7.046875 -6.578125 7.164062 -6.628906 7.25 -6.671875 L 7.25 -5.59375 L 6.125 -5.390625 C 6.1875 -5.253906 6.234375 -5.109375 6.265625 -4.953125 C 6.304688 -4.796875 6.328125 -4.644531 6.328125 -4.5 C 6.328125 -4.125 6.226562 -3.78125 6.03125 -3.46875 C 5.832031 -3.164062 5.535156 -2.921875 5.140625 -2.734375 C 4.742188 -2.554688 4.242188 -2.46875 3.640625 -2.46875 C 3.597656 -2.46875 3.535156 -2.46875 3.453125 -2.46875 C 3.378906 -2.46875 3.316406 -2.472656 3.265625 -2.484375 C 2.816406 -2.472656 2.507812 -2.421875 2.34375 -2.328125 C 2.175781 -2.242188 2.09375 -2.148438 2.09375 -2.046875 C 2.09375 -1.929688 2.1875 -1.847656 2.375 -1.796875 C 2.5625 -1.753906 2.878906 -1.71875 3.328125 -1.6875 C 3.492188 -1.675781 3.695312 -1.664062 3.9375 -1.65625 C 4.175781 -1.644531 4.441406 -1.628906 4.734375 -1.609375 C 5.410156 -1.566406 5.929688 -1.390625 6.296875 -1.078125 C 6.660156 -0.773438 6.84375 -0.367188 6.84375 0.140625 C 6.84375 0.722656 6.582031 1.195312 6.0625 1.5625 C 5.539062 1.9375 4.742188 2.125 3.671875 2.125 Z M 3.875 1.390625 C 4.46875 1.390625 4.921875 1.300781 5.234375 1.125 C 5.554688 0.945312 5.71875 0.675781 5.71875 0.3125 C 5.71875 0.0507812 5.617188 -0.15625 5.421875 -0.3125 C 5.234375 -0.476562 4.941406 -0.578125 4.546875 -0.609375 L 2.734375 -0.71875 C 2.578125 -0.726562 2.410156 -0.6875 2.234375 -0.59375 C 2.054688 -0.507812 1.90625 -0.390625 1.78125 -0.234375 C 1.664062 -0.078125 1.609375 0.101562 1.609375 0.3125 C 1.609375 0.644531 1.789062 0.90625 2.15625 1.09375 C 2.53125 1.289062 3.101562 1.390625 3.875 1.390625 Z M 3.671875 -3.203125 C 4.140625 -3.203125 4.515625 -3.3125 4.796875 -3.53125 C 5.085938 -3.75 5.234375 -4.070312 5.234375 -4.5 C 5.234375 -4.9375 5.085938 -5.265625 4.796875 -5.484375 C 4.515625 -5.710938 4.140625 -5.828125 3.671875 -5.828125 C 3.203125 -5.828125 2.820312 -5.710938 2.53125 -5.484375 C 2.25 -5.253906 2.109375 -4.925781 2.109375 -4.5 C 2.109375 -4.09375 2.242188 -3.773438 2.515625 -3.546875 C 2.796875 -3.316406 3.179688 -3.203125 3.671875 -3.203125 Z M 3.671875 -3.203125 "/></g></g></g><g fill="#a6a6a6" fill-opacity="1"><g transform="translate(117.401052, 61.410155)"><g/></g></g><g fill="#a6a6a6" fill-opacity="1"><g transform="translate(120.275732, 61.410155)"><g><path d="M 4.59375 -6.453125 L 4.59375 -5.609375 L 3.03125 -5.609375 L 3.03125 0 L 1.875 0 L 1.875 -5.609375 L 0.515625 -5.609375 L 0.515625 -6.453125 L 1.875 -6.453125 L 1.875 -7.4375 C 1.875 -7.945312 2.003906 -8.335938 2.265625 -8.609375 C 2.523438 -8.878906 2.914062 -9.015625 3.4375 -9.015625 L 4.65625 -9.015625 L 4.65625 -8.203125 L 3.6875 -8.203125 C 3.425781 -8.203125 3.25 -8.128906 3.15625 -7.984375 C 3.0625 -7.847656 3.015625 -7.632812 3.015625 -7.34375 L 3.015625 -6.453125 Z M 4.59375 -6.453125 "/></g></g></g><g fill="#a6a6a6" fill-opacity="1"><g transform="translate(125.339153, 61.410155)"><g><path d="M 3.328125 0.125 C 2.984375 0.125 2.660156 0.078125 2.359375 -0.015625 C 2.066406 -0.109375 1.804688 -0.242188 1.578125 -0.421875 C 1.347656 -0.609375 1.164062 -0.835938 1.03125 -1.109375 C 0.90625 -1.390625 0.84375 -1.707031 0.84375 -2.0625 L 0.84375 -6.453125 L 2 -6.453125 L 2 -2.1875 C 2 -1.769531 2.128906 -1.425781 2.390625 -1.15625 C 2.648438 -0.894531 3.039062 -0.765625 3.5625 -0.765625 C 4.039062 -0.765625 4.421875 -0.890625 4.703125 -1.140625 C 4.992188 -1.390625 5.140625 -1.757812 5.140625 -2.25 L 5.140625 -6.453125 L 6.296875 -6.453125 L 6.296875 0 L 5.375 0 L 5.25 -1.234375 C 5.175781 -0.910156 5.039062 -0.648438 4.84375 -0.453125 C 4.65625 -0.253906 4.429688 -0.109375 4.171875 -0.015625 C 3.910156 0.078125 3.628906 0.125 3.328125 0.125 Z M 3.328125 0.125 "/></g></g></g><g fill="#a6a6a6" fill-opacity="1"><g transform="translate(132.479069, 61.410155)"><g><path d="M 0.953125 0 L 0.953125 -6.453125 L 2.0625 -6.453125 L 2.0625 -5.515625 C 2.164062 -5.691406 2.3125 -5.859375 2.5 -6.015625 C 2.6875 -6.171875 2.910156 -6.296875 3.171875 -6.390625 C 3.441406 -6.492188 3.75 -6.546875 4.09375 -6.546875 C 4.5 -6.546875 4.875 -6.460938 5.21875 -6.296875 C 5.5625 -6.128906 5.832031 -5.875 6.03125 -5.53125 C 6.238281 -5.195312 6.34375 -4.757812 6.34375 -4.21875 L 6.34375 0 L 5.1875 0 L 5.1875 -4.109375 C 5.1875 -4.609375 5.054688 -4.976562 4.796875 -5.21875 C 4.535156 -5.46875 4.191406 -5.59375 3.765625 -5.59375 C 3.472656 -5.59375 3.203125 -5.546875 2.953125 -5.453125 C 2.703125 -5.359375 2.492188 -5.210938 2.328125 -5.015625 C 2.171875 -4.828125 2.09375 -4.59375 2.09375 -4.3125 L 2.09375 0 Z M 0.953125 0 "/></g></g></g><g fill="#a6a6a6" fill-opacity="1"><g transform="translate(139.675115, 61.410155)"><g><path d="M 0.546875 1.5625 L 1.234375 0.03125 L 0.703125 0 L 0.703125 -1.390625 L 2.140625 -1.390625 L 2.140625 -0.1875 L 1.078125 1.5625 Z M 0.546875 1.5625 "/></g></g></g><g fill="#a6a6a6" fill-opacity="1"><g transform="translate(142.686971, 61.410155)"><g/></g></g><g fill="#a6a6a6" fill-opacity="1"><g transform="translate(145.561651, 61.410155)"><g><path d="M 2.578125 0.078125 C 2.234375 0.078125 1.953125 0.03125 1.734375 -0.0625 C 1.523438 -0.15625 1.363281 -0.28125 1.25 -0.4375 C 1.132812 -0.601562 1.054688 -0.789062 1.015625 -1 C 0.972656 -1.21875 0.953125 -1.4375 0.953125 -1.65625 L 0.953125 -9.265625 L 2.09375 -9.265625 L 2.09375 -1.765625 C 2.09375 -1.441406 2.15625 -1.195312 2.28125 -1.03125 C 2.40625 -0.875 2.582031 -0.785156 2.8125 -0.765625 L 3.15625 -0.765625 L 3.15625 -0.015625 C 3.0625 0.015625 2.960938 0.0351562 2.859375 0.046875 C 2.753906 0.0664062 2.660156 0.078125 2.578125 0.078125 Z M 2.578125 0.078125 "/></g></g></g><g fill="#a6a6a6" fill-opacity="1"><g transform="translate(149.27191, 61.410155)"><g><path d="M 2.203125 -6.453125 L 2.203125 0 L 1.078125 0 L 1.078125 -6.453125 Z M 2.21875 -9.015625 L 2.21875 -7.8125 L 1.046875 -7.8125 L 1.046875 -9.015625 Z M 2.21875 -9.015625 "/></g></g></g><g fill="#a6a6a6" fill-opacity="1"><g transform="translate(152.545677, 61.410155)"><g><path d="M 3.234375 0.125 C 2.785156 0.125 2.367188 0.0546875 1.984375 -0.078125 C 1.609375 -0.222656 1.289062 -0.441406 1.03125 -0.734375 C 0.78125 -1.035156 0.625 -1.414062 0.5625 -1.875 L 1.609375 -1.875 C 1.660156 -1.625 1.757812 -1.410156 1.90625 -1.234375 C 2.0625 -1.066406 2.253906 -0.941406 2.484375 -0.859375 C 2.710938 -0.773438 2.960938 -0.734375 3.234375 -0.734375 C 3.671875 -0.734375 4.019531 -0.8125 4.28125 -0.96875 C 4.550781 -1.132812 4.6875 -1.390625 4.6875 -1.734375 C 4.6875 -1.960938 4.613281 -2.148438 4.46875 -2.296875 C 4.332031 -2.441406 4.117188 -2.546875 3.828125 -2.609375 L 2.5 -2.9375 C 1.976562 -3.0625 1.5625 -3.253906 1.25 -3.515625 C 0.9375 -3.785156 0.78125 -4.160156 0.78125 -4.640625 C 0.769531 -5.023438 0.859375 -5.359375 1.046875 -5.640625 C 1.234375 -5.929688 1.507812 -6.160156 1.875 -6.328125 C 2.238281 -6.492188 2.691406 -6.578125 3.234375 -6.578125 C 3.929688 -6.578125 4.492188 -6.414062 4.921875 -6.09375 C 5.359375 -5.78125 5.582031 -5.320312 5.59375 -4.71875 L 4.578125 -4.71875 C 4.535156 -5.03125 4.394531 -5.273438 4.15625 -5.453125 C 3.925781 -5.628906 3.613281 -5.71875 3.21875 -5.71875 C 2.8125 -5.71875 2.476562 -5.632812 2.21875 -5.46875 C 1.957031 -5.3125 1.828125 -5.0625 1.828125 -4.71875 C 1.828125 -4.488281 1.914062 -4.304688 2.09375 -4.171875 C 2.28125 -4.046875 2.554688 -3.9375 2.921875 -3.84375 L 4.203125 -3.515625 C 4.503906 -3.441406 4.75 -3.335938 4.9375 -3.203125 C 5.132812 -3.078125 5.289062 -2.9375 5.40625 -2.78125 C 5.519531 -2.625 5.597656 -2.457031 5.640625 -2.28125 C 5.691406 -2.113281 5.71875 -1.953125 5.71875 -1.796875 C 5.71875 -1.398438 5.617188 -1.054688 5.421875 -0.765625 C 5.222656 -0.484375 4.941406 -0.265625 4.578125 -0.109375 C 4.210938 0.046875 3.765625 0.125 3.234375 0.125 Z M 3.234375 0.125 "/></g></g></g><g fill="#a6a6a6" fill-opacity="1"><g transform="translate(158.924834, 61.410155)"><g><path d="M 4.3125 -5.609375 L 2.859375 -5.609375 L 2.859375 -1.59375 C 2.859375 -1.363281 2.878906 -1.195312 2.921875 -1.09375 C 2.972656 -0.988281 3.054688 -0.921875 3.171875 -0.890625 C 3.285156 -0.859375 3.441406 -0.84375 3.640625 -0.84375 L 4.359375 -0.84375 L 4.359375 -0.078125 C 4.273438 -0.046875 4.148438 -0.0195312 3.984375 0 C 3.828125 0.0195312 3.628906 0.03125 3.390625 0.03125 C 2.953125 0.03125 2.609375 -0.0234375 2.359375 -0.140625 C 2.117188 -0.265625 1.945312 -0.445312 1.84375 -0.6875 C 1.75 -0.925781 1.703125 -1.21875 1.703125 -1.5625 L 1.703125 -5.609375 L 0.65625 -5.609375 L 0.65625 -6.453125 L 1.734375 -6.453125 L 2.015625 -8.328125 L 2.859375 -8.328125 L 2.859375 -6.453125 L 4.3125 -6.453125 Z M 4.3125 -5.609375 "/></g></g></g><g fill="#a6a6a6" fill-opacity="1"><g transform="translate(163.944602, 61.410155)"><g><path d="M 1.78125 -2.953125 C 1.78125 -2.546875 1.847656 -2.175781 1.984375 -1.84375 C 2.117188 -1.519531 2.320312 -1.257812 2.59375 -1.0625 C 2.875 -0.863281 3.222656 -0.765625 3.640625 -0.765625 C 4.046875 -0.765625 4.394531 -0.859375 4.6875 -1.046875 C 4.988281 -1.242188 5.179688 -1.519531 5.265625 -1.875 L 6.359375 -1.875 C 6.273438 -1.445312 6.097656 -1.082031 5.828125 -0.78125 C 5.566406 -0.476562 5.242188 -0.25 4.859375 -0.09375 C 4.472656 0.0507812 4.070312 0.125 3.65625 0.125 C 3.050781 0.125 2.519531 -0.00390625 2.0625 -0.265625 C 1.613281 -0.523438 1.257812 -0.898438 1 -1.390625 C 0.738281 -1.878906 0.609375 -2.46875 0.609375 -3.15625 C 0.609375 -3.832031 0.722656 -4.425781 0.953125 -4.9375 C 1.191406 -5.445312 1.53125 -5.847656 1.96875 -6.140625 C 2.414062 -6.429688 2.953125 -6.578125 3.578125 -6.578125 C 4.179688 -6.578125 4.691406 -6.441406 5.109375 -6.171875 C 5.523438 -5.910156 5.84375 -5.539062 6.0625 -5.0625 C 6.28125 -4.59375 6.390625 -4.03125 6.390625 -3.375 L 6.390625 -2.953125 Z M 1.78125 -3.734375 L 5.28125 -3.734375 C 5.28125 -4.109375 5.21875 -4.441406 5.09375 -4.734375 C 4.96875 -5.035156 4.773438 -5.269531 4.515625 -5.4375 C 4.265625 -5.613281 3.945312 -5.703125 3.5625 -5.703125 C 3.164062 -5.703125 2.832031 -5.601562 2.5625 -5.40625 C 2.300781 -5.21875 2.101562 -4.972656 1.96875 -4.671875 C 1.84375 -4.367188 1.78125 -4.054688 1.78125 -3.734375 Z M 1.78125 -3.734375 "/></g></g></g><g fill="#a6a6a6" fill-opacity="1"><g transform="translate(170.966044, 61.410155)"><g><path d="M 0.953125 0 L 0.953125 -6.453125 L 2.0625 -6.453125 L 2.0625 -5.515625 C 2.164062 -5.691406 2.3125 -5.859375 2.5 -6.015625 C 2.6875 -6.171875 2.910156 -6.296875 3.171875 -6.390625 C 3.441406 -6.492188 3.75 -6.546875 4.09375 -6.546875 C 4.5 -6.546875 4.875 -6.460938 5.21875 -6.296875 C 5.5625 -6.128906 5.832031 -5.875 6.03125 -5.53125 C 6.238281 -5.195312 6.34375 -4.757812 6.34375 -4.21875 L 6.34375 0 L 5.1875 0 L 5.1875 -4.109375 C 5.1875 -4.609375 5.054688 -4.976562 4.796875 -5.21875 C 4.535156 -5.46875 4.191406 -5.59375 3.765625 -5.59375 C 3.472656 -5.59375 3.203125 -5.546875 2.953125 -5.453125 C 2.703125 -5.359375 2.492188 -5.210938 2.328125 -5.015625 C 2.171875 -4.828125 2.09375 -4.59375 2.09375 -4.3125 L 2.09375 0 Z M 0.953125 0 "/></g></g></g><g fill="#a6a6a6" fill-opacity="1"><g transform="translate(6.759884, 78.599414)"><g><path d="M 9.4375 -6.453125 L 7.484375 0 L 6.34375 0 L 4.875 -4.75 L 3.484375 0 L 2.34375 0 L 0.359375 -6.453125 L 1.421875 -6.453125 L 2.90625 -1.484375 L 3 -1.484375 L 4.453125 -6.453125 L 5.328125 -6.453125 L 6.84375 -1.5 L 6.9375 -1.5 L 8.359375 -6.453125 Z M 9.4375 -6.453125 "/></g></g></g><g fill="#a6a6a6" fill-opacity="1"><g transform="translate(16.556222, 78.599414)"><g><path d="M 2.203125 -6.453125 L 2.203125 0 L 1.078125 0 L 1.078125 -6.453125 Z M 2.21875 -9.015625 L 2.21875 -7.8125 L 1.046875 -7.8125 L 1.046875 -9.015625 Z M 2.21875 -9.015625 "/></g></g></g><g fill="#a6a6a6" fill-opacity="1"><g transform="translate(19.829989, 78.599414)"><g><path d="M 0.953125 0 L 0.953125 -6.453125 L 2.046875 -6.453125 L 2.046875 -5.203125 C 2.160156 -5.515625 2.3125 -5.769531 2.5 -5.96875 C 2.695312 -6.164062 2.921875 -6.316406 3.171875 -6.421875 C 3.421875 -6.523438 3.679688 -6.578125 3.953125 -6.578125 C 4.054688 -6.578125 4.148438 -6.566406 4.234375 -6.546875 C 4.328125 -6.535156 4.398438 -6.515625 4.453125 -6.484375 L 4.453125 -5.375 C 4.390625 -5.40625 4.304688 -5.425781 4.203125 -5.4375 C 4.109375 -5.445312 4.03125 -5.453125 3.96875 -5.453125 C 3.707031 -5.460938 3.460938 -5.441406 3.234375 -5.390625 C 3.015625 -5.347656 2.816406 -5.269531 2.640625 -5.15625 C 2.472656 -5.039062 2.335938 -4.882812 2.234375 -4.6875 C 2.140625 -4.5 2.09375 -4.273438 2.09375 -4.015625 L 2.09375 0 Z M 0.953125 0 "/></g></g></g><g fill="#a6a6a6" fill-opacity="1"><g transform="translate(24.66269, 78.599414)"><g><path d="M 1.78125 -2.953125 C 1.78125 -2.546875 1.847656 -2.175781 1.984375 -1.84375 C 2.117188 -1.519531 2.320312 -1.257812 2.59375 -1.0625 C 2.875 -0.863281 3.222656 -0.765625 3.640625 -0.765625 C 4.046875 -0.765625 4.394531 -0.859375 4.6875 -1.046875 C 4.988281 -1.242188 5.179688 -1.519531 5.265625 -1.875 L 6.359375 -1.875 C 6.273438 -1.445312 6.097656 -1.082031 5.828125 -0.78125 C 5.566406 -0.476562 5.242188 -0.25 4.859375 -0.09375 C 4.472656 0.0507812 4.070312 0.125 3.65625 0.125 C 3.050781 0.125 2.519531 -0.00390625 2.0625 -0.265625 C 1.613281 -0.523438 1.257812 -0.898438 1 -1.390625 C 0.738281 -1.878906 0.609375 -2.46875 0.609375 -3.15625 C 0.609375 -3.832031 0.722656 -4.425781 0.953125 -4.9375 C 1.191406 -5.445312 1.53125 -5.847656 1.96875 -6.140625 C 2.414062 -6.429688 2.953125 -6.578125 3.578125 -6.578125 C 4.179688 -6.578125 4.691406 -6.441406 5.109375 -6.171875 C 5.523438 -5.910156 5.84375 -5.539062 6.0625 -5.0625 C 6.28125 -4.59375 6.390625 -4.03125 6.390625 -3.375 L 6.390625 -2.953125 Z M 1.78125 -3.734375 L 5.28125 -3.734375 C 5.28125 -4.109375 5.21875 -4.441406 5.09375 -4.734375 C 4.96875 -5.035156 4.773438 -5.269531 4.515625 -5.4375 C 4.265625 -5.613281 3.945312 -5.703125 3.5625 -5.703125 C 3.164062 -5.703125 2.832031 -5.601562 2.5625 -5.40625 C 2.300781 -5.21875 2.101562 -4.972656 1.96875 -4.671875 C 1.84375 -4.367188 1.78125 -4.054688 1.78125 -3.734375 Z M 1.78125 -3.734375 "/></g></g></g><g fill="#a6a6a6" fill-opacity="1"><g transform="translate(31.684132, 78.599414)"><g><path d="M 2.578125 0.078125 C 2.234375 0.078125 1.953125 0.03125 1.734375 -0.0625 C 1.523438 -0.15625 1.363281 -0.28125 1.25 -0.4375 C 1.132812 -0.601562 1.054688 -0.789062 1.015625 -1 C 0.972656 -1.21875 0.953125 -1.4375 0.953125 -1.65625 L 0.953125 -9.265625 L 2.09375 -9.265625 L 2.09375 -1.765625 C 2.09375 -1.441406 2.15625 -1.195312 2.28125 -1.03125 C 2.40625 -0.875 2.582031 -0.785156 2.8125 -0.765625 L 3.15625 -0.765625 L 3.15625 -0.015625 C 3.0625 0.015625 2.960938 0.0351562 2.859375 0.046875 C 2.753906 0.0664062 2.660156 0.078125 2.578125 0.078125 Z M 2.578125 0.078125 "/></g></g></g><g fill="#a6a6a6" fill-opacity="1"><g transform="translate(35.39439, 78.599414)"><g><path d="M 1.78125 -2.953125 C 1.78125 -2.546875 1.847656 -2.175781 1.984375 -1.84375 C 2.117188 -1.519531 2.320312 -1.257812 2.59375 -1.0625 C 2.875 -0.863281 3.222656 -0.765625 3.640625 -0.765625 C 4.046875 -0.765625 4.394531 -0.859375 4.6875 -1.046875 C 4.988281 -1.242188 5.179688 -1.519531 5.265625 -1.875 L 6.359375 -1.875 C 6.273438 -1.445312 6.097656 -1.082031 5.828125 -0.78125 C 5.566406 -0.476562 5.242188 -0.25 4.859375 -0.09375 C 4.472656 0.0507812 4.070312 0.125 3.65625 0.125 C 3.050781 0.125 2.519531 -0.00390625 2.0625 -0.265625 C 1.613281 -0.523438 1.257812 -0.898438 1 -1.390625 C 0.738281 -1.878906 0.609375 -2.46875 0.609375 -3.15625 C 0.609375 -3.832031 0.722656 -4.425781 0.953125 -4.9375 C 1.191406 -5.445312 1.53125 -5.847656 1.96875 -6.140625 C 2.414062 -6.429688 2.953125 -6.578125 3.578125 -6.578125 C 4.179688 -6.578125 4.691406 -6.441406 5.109375 -6.171875 C 5.523438 -5.910156 5.84375 -5.539062 6.0625 -5.0625 C 6.28125 -4.59375 6.390625 -4.03125 6.390625 -3.375 L 6.390625 -2.953125 Z M 1.78125 -3.734375 L 5.28125 -3.734375 C 5.28125 -4.109375 5.21875 -4.441406 5.09375 -4.734375 C 4.96875 -5.035156 4.773438 -5.269531 4.515625 -5.4375 C 4.265625 -5.613281 3.945312 -5.703125 3.5625 -5.703125 C 3.164062 -5.703125 2.832031 -5.601562 2.5625 -5.40625 C 2.300781 -5.21875 2.101562 -4.972656 1.96875 -4.671875 C 1.84375 -4.367188 1.78125 -4.054688 1.78125 -3.734375 Z M 1.78125 -3.734375 "/></g></g></g><g fill="#a6a6a6" fill-opacity="1"><g transform="translate(42.415832, 78.599414)"><g><path d="M 3.234375 0.125 C 2.785156 0.125 2.367188 0.0546875 1.984375 -0.078125 C 1.609375 -0.222656 1.289062 -0.441406 1.03125 -0.734375 C 0.78125 -1.035156 0.625 -1.414062 0.5625 -1.875 L 1.609375 -1.875 C 1.660156 -1.625 1.757812 -1.410156 1.90625 -1.234375 C 2.0625 -1.066406 2.253906 -0.941406 2.484375 -0.859375 C 2.710938 -0.773438 2.960938 -0.734375 3.234375 -0.734375 C 3.671875 -0.734375 4.019531 -0.8125 4.28125 -0.96875 C 4.550781 -1.132812 4.6875 -1.390625 4.6875 -1.734375 C 4.6875 -1.960938 4.613281 -2.148438 4.46875 -2.296875 C 4.332031 -2.441406 4.117188 -2.546875 3.828125 -2.609375 L 2.5 -2.9375 C 1.976562 -3.0625 1.5625 -3.253906 1.25 -3.515625 C 0.9375 -3.785156 0.78125 -4.160156 0.78125 -4.640625 C 0.769531 -5.023438 0.859375 -5.359375 1.046875 -5.640625 C 1.234375 -5.929688 1.507812 -6.160156 1.875 -6.328125 C 2.238281 -6.492188 2.691406 -6.578125 3.234375 -6.578125 C 3.929688 -6.578125 4.492188 -6.414062 4.921875 -6.09375 C 5.359375 -5.78125 5.582031 -5.320312 5.59375 -4.71875 L 4.578125 -4.71875 C 4.535156 -5.03125 4.394531 -5.273438 4.15625 -5.453125 C 3.925781 -5.628906 3.613281 -5.71875 3.21875 -5.71875 C 2.8125 -5.71875 2.476562 -5.632812 2.21875 -5.46875 C 1.957031 -5.3125 1.828125 -5.0625 1.828125 -4.71875 C 1.828125 -4.488281 1.914062 -4.304688 2.09375 -4.171875 C 2.28125 -4.046875 2.554688 -3.9375 2.921875 -3.84375 L 4.203125 -3.515625 C 4.503906 -3.441406 4.75 -3.335938 4.9375 -3.203125 C 5.132812 -3.078125 5.289062 -2.9375 5.40625 -2.78125 C 5.519531 -2.625 5.597656 -2.457031 5.640625 -2.28125 C 5.691406 -2.113281 5.71875 -1.953125 5.71875 -1.796875 C 5.71875 -1.398438 5.617188 -1.054688 5.421875 -0.765625 C 5.222656 -0.484375 4.941406 -0.265625 4.578125 -0.109375 C 4.210938 0.046875 3.765625 0.125 3.234375 0.125 Z M 3.234375 0.125 "/></g></g></g><g fill="#a6a6a6" fill-opacity="1"><g transform="translate(48.79499, 78.599414)"><g><path d="M 3.234375 0.125 C 2.785156 0.125 2.367188 0.0546875 1.984375 -0.078125 C 1.609375 -0.222656 1.289062 -0.441406 1.03125 -0.734375 C 0.78125 -1.035156 0.625 -1.414062 0.5625 -1.875 L 1.609375 -1.875 C 1.660156 -1.625 1.757812 -1.410156 1.90625 -1.234375 C 2.0625 -1.066406 2.253906 -0.941406 2.484375 -0.859375 C 2.710938 -0.773438 2.960938 -0.734375 3.234375 -0.734375 C 3.671875 -0.734375 4.019531 -0.8125 4.28125 -0.96875 C 4.550781 -1.132812 4.6875 -1.390625 4.6875 -1.734375 C 4.6875 -1.960938 4.613281 -2.148438 4.46875 -2.296875 C 4.332031 -2.441406 4.117188 -2.546875 3.828125 -2.609375 L 2.5 -2.9375 C 1.976562 -3.0625 1.5625 -3.253906 1.25 -3.515625 C 0.9375 -3.785156 0.78125 -4.160156 0.78125 -4.640625 C 0.769531 -5.023438 0.859375 -5.359375 1.046875 -5.640625 C 1.234375 -5.929688 1.507812 -6.160156 1.875 -6.328125 C 2.238281 -6.492188 2.691406 -6.578125 3.234375 -6.578125 C 3.929688 -6.578125 4.492188 -6.414062 4.921875 -6.09375 C 5.359375 -5.78125 5.582031 -5.320312 5.59375 -4.71875 L 4.578125 -4.71875 C 4.535156 -5.03125 4.394531 -5.273438 4.15625 -5.453125 C 3.925781 -5.628906 3.613281 -5.71875 3.21875 -5.71875 C 2.8125 -5.71875 2.476562 -5.632812 2.21875 -5.46875 C 1.957031 -5.3125 1.828125 -5.0625 1.828125 -4.71875 C 1.828125 -4.488281 1.914062 -4.304688 2.09375 -4.171875 C 2.28125 -4.046875 2.554688 -3.9375 2.921875 -3.84375 L 4.203125 -3.515625 C 4.503906 -3.441406 4.75 -3.335938 4.9375 -3.203125 C 5.132812 -3.078125 5.289062 -2.9375 5.40625 -2.78125 C 5.519531 -2.625 5.597656 -2.457031 5.640625 -2.28125 C 5.691406 -2.113281 5.71875 -1.953125 5.71875 -1.796875 C 5.71875 -1.398438 5.617188 -1.054688 5.421875 -0.765625 C 5.222656 -0.484375 4.941406 -0.265625 4.578125 -0.109375 C 4.210938 0.046875 3.765625 0.125 3.234375 0.125 Z M 3.234375 0.125 "/></g></g></g><g fill="#a6a6a6" fill-opacity="1"><g transform="translate(55.174147, 78.599414)"><g><path d="M 2.578125 0.078125 C 2.234375 0.078125 1.953125 0.03125 1.734375 -0.0625 C 1.523438 -0.15625 1.363281 -0.28125 1.25 -0.4375 C 1.132812 -0.601562 1.054688 -0.789062 1.015625 -1 C 0.972656 -1.21875 0.953125 -1.4375 0.953125 -1.65625 L 0.953125 -9.265625 L 2.09375 -9.265625 L 2.09375 -1.765625 C 2.09375 -1.441406 2.15625 -1.195312 2.28125 -1.03125 C 2.40625 -0.875 2.582031 -0.785156 2.8125 -0.765625 L 3.15625 -0.765625 L 3.15625 -0.015625 C 3.0625 0.015625 2.960938 0.0351562 2.859375 0.046875 C 2.753906 0.0664062 2.660156 0.078125 2.578125 0.078125 Z M 2.578125 0.078125 "/></g></g></g><g fill="#a6a6a6" fill-opacity="1"><g transform="translate(58.884406, 78.599414)"><g><path d="M 1.59375 2.0625 C 1.207031 2.0625 0.941406 2.03125 0.796875 1.96875 C 0.660156 1.914062 0.59375 1.890625 0.59375 1.890625 L 0.59375 1.140625 L 1.25 1.15625 C 1.488281 1.164062 1.6875 1.148438 1.84375 1.109375 C 2.007812 1.066406 2.140625 1.007812 2.234375 0.9375 C 2.328125 0.863281 2.398438 0.785156 2.453125 0.703125 C 2.503906 0.617188 2.546875 0.535156 2.578125 0.453125 L 2.8125 -0.15625 L 0.28125 -6.453125 L 1.453125 -6.453125 L 3.359375 -1.46875 L 5.25 -6.453125 L 6.375 -6.453125 L 3.65625 0.484375 C 3.488281 0.890625 3.300781 1.207031 3.09375 1.4375 C 2.882812 1.664062 2.65625 1.828125 2.40625 1.921875 C 2.15625 2.015625 1.882812 2.0625 1.59375 2.0625 Z M 1.59375 2.0625 "/></g></g></g><g fill="#a6a6a6" fill-opacity="1"><g transform="translate(65.537939, 78.599414)"><g/></g></g><g fill="#a6a6a6" fill-opacity="1"><g transform="translate(68.412619, 78.599414)"><g><path d="M 4.59375 -6.453125 L 4.59375 -5.609375 L 3.03125 -5.609375 L 3.03125 0 L 1.875 0 L 1.875 -5.609375 L 0.515625 -5.609375 L 0.515625 -6.453125 L 1.875 -6.453125 L 1.875 -7.4375 C 1.875 -7.945312 2.003906 -8.335938 2.265625 -8.609375 C 2.523438 -8.878906 2.914062 -9.015625 3.4375 -9.015625 L 4.65625 -9.015625 L 4.65625 -8.203125 L 3.6875 -8.203125 C 3.425781 -8.203125 3.25 -8.128906 3.15625 -7.984375 C 3.0625 -7.847656 3.015625 -7.632812 3.015625 -7.34375 L 3.015625 -6.453125 Z M 4.59375 -6.453125 "/></g></g></g><g fill="#a6a6a6" fill-opacity="1"><g transform="translate(73.47604, 78.599414)"><g><path d="M 3.515625 0.125 C 2.921875 0.125 2.398438 0 1.953125 -0.25 C 1.515625 -0.507812 1.171875 -0.882812 0.921875 -1.375 C 0.679688 -1.875 0.5625 -2.484375 0.5625 -3.203125 C 0.5625 -3.867188 0.671875 -4.457031 0.890625 -4.96875 C 1.117188 -5.476562 1.453125 -5.875 1.890625 -6.15625 C 2.335938 -6.4375 2.878906 -6.578125 3.515625 -6.578125 C 4.109375 -6.578125 4.625 -6.445312 5.0625 -6.1875 C 5.5 -5.925781 5.835938 -5.539062 6.078125 -5.03125 C 6.328125 -4.53125 6.453125 -3.921875 6.453125 -3.203125 C 6.453125 -2.546875 6.335938 -1.96875 6.109375 -1.46875 C 5.890625 -0.96875 5.5625 -0.578125 5.125 -0.296875 C 4.6875 -0.015625 4.148438 0.125 3.515625 0.125 Z M 3.515625 -0.78125 C 3.898438 -0.78125 4.222656 -0.878906 4.484375 -1.078125 C 4.753906 -1.273438 4.957031 -1.554688 5.09375 -1.921875 C 5.238281 -2.285156 5.3125 -2.71875 5.3125 -3.21875 C 5.3125 -3.6875 5.25 -4.101562 5.125 -4.46875 C 5 -4.832031 4.804688 -5.125 4.546875 -5.34375 C 4.285156 -5.5625 3.941406 -5.671875 3.515625 -5.671875 C 3.128906 -5.671875 2.800781 -5.570312 2.53125 -5.375 C 2.257812 -5.1875 2.050781 -4.90625 1.90625 -4.53125 C 1.769531 -4.164062 1.703125 -3.726562 1.703125 -3.21875 C 1.703125 -2.769531 1.765625 -2.359375 1.890625 -1.984375 C 2.015625 -1.617188 2.207031 -1.328125 2.46875 -1.109375 C 2.738281 -0.890625 3.085938 -0.78125 3.515625 -0.78125 Z M 3.515625 -0.78125 "/></g></g></g><g fill="#a6a6a6" fill-opacity="1"><g transform="translate(80.485006, 78.599414)"><g><path d="M 0.953125 0 L 0.953125 -6.453125 L 2.046875 -6.453125 L 2.046875 -5.203125 C 2.160156 -5.515625 2.3125 -5.769531 2.5 -5.96875 C 2.695312 -6.164062 2.921875 -6.316406 3.171875 -6.421875 C 3.421875 -6.523438 3.679688 -6.578125 3.953125 -6.578125 C 4.054688 -6.578125 4.148438 -6.566406 4.234375 -6.546875 C 4.328125 -6.535156 4.398438 -6.515625 4.453125 -6.484375 L 4.453125 -5.375 C 4.390625 -5.40625 4.304688 -5.425781 4.203125 -5.4375 C 4.109375 -5.445312 4.03125 -5.453125 3.96875 -5.453125 C 3.707031 -5.460938 3.460938 -5.441406 3.234375 -5.390625 C 3.015625 -5.347656 2.816406 -5.269531 2.640625 -5.15625 C 2.472656 -5.039062 2.335938 -4.882812 2.234375 -4.6875 C 2.140625 -4.5 2.09375 -4.273438 2.09375 -4.015625 L 2.09375 0 Z M 0.953125 0 "/></g></g></g><g fill="#a6a6a6" fill-opacity="1"><g transform="translate(85.317707, 78.599414)"><g/></g></g><g fill="#a6a6a6" fill-opacity="1"><g transform="translate(88.192387, 78.599414)"><g><path d="M 3.328125 0.125 C 2.984375 0.125 2.660156 0.078125 2.359375 -0.015625 C 2.066406 -0.109375 1.804688 -0.242188 1.578125 -0.421875 C 1.347656 -0.609375 1.164062 -0.835938 1.03125 -1.109375 C 0.90625 -1.390625 0.84375 -1.707031 0.84375 -2.0625 L 0.84375 -6.453125 L 2 -6.453125 L 2 -2.1875 C 2 -1.769531 2.128906 -1.425781 2.390625 -1.15625 C 2.648438 -0.894531 3.039062 -0.765625 3.5625 -0.765625 C 4.039062 -0.765625 4.421875 -0.890625 4.703125 -1.140625 C 4.992188 -1.390625 5.140625 -1.757812 5.140625 -2.25 L 5.140625 -6.453125 L 6.296875 -6.453125 L 6.296875 0 L 5.375 0 L 5.25 -1.234375 C 5.175781 -0.910156 5.039062 -0.648438 4.84375 -0.453125 C 4.65625 -0.253906 4.429688 -0.109375 4.171875 -0.015625 C 3.910156 0.078125 3.628906 0.125 3.328125 0.125 Z M 3.328125 0.125 "/></g></g></g><g fill="#a6a6a6" fill-opacity="1"><g transform="translate(95.332302, 78.599414)"><g><path d="M 0.953125 2 L 0.953125 -6.453125 L 2.09375 -6.453125 L 2.109375 -5.328125 C 2.179688 -5.460938 2.273438 -5.597656 2.390625 -5.734375 C 2.515625 -5.878906 2.660156 -6.015625 2.828125 -6.140625 C 3.003906 -6.265625 3.207031 -6.367188 3.4375 -6.453125 C 3.675781 -6.535156 3.941406 -6.578125 4.234375 -6.578125 C 4.742188 -6.578125 5.195312 -6.457031 5.59375 -6.21875 C 5.988281 -5.976562 6.296875 -5.617188 6.515625 -5.140625 C 6.734375 -4.660156 6.84375 -4.050781 6.84375 -3.3125 C 6.84375 -2.570312 6.734375 -1.945312 6.515625 -1.4375 C 6.304688 -0.925781 6 -0.535156 5.59375 -0.265625 C 5.195312 -0.00390625 4.710938 0.125 4.140625 0.125 C 3.847656 0.125 3.59375 0.0820312 3.375 0 C 3.15625 -0.0820312 2.960938 -0.1875 2.796875 -0.3125 C 2.628906 -0.445312 2.488281 -0.585938 2.375 -0.734375 C 2.269531 -0.878906 2.179688 -1.023438 2.109375 -1.171875 L 2.109375 2 Z M 3.921875 -0.765625 C 4.453125 -0.765625 4.882812 -0.96875 5.21875 -1.375 C 5.5625 -1.78125 5.734375 -2.410156 5.734375 -3.265625 C 5.734375 -4.003906 5.578125 -4.585938 5.265625 -5.015625 C 4.960938 -5.453125 4.515625 -5.671875 3.921875 -5.671875 C 3.328125 -5.671875 2.875 -5.445312 2.5625 -5 C 2.25 -4.5625 2.09375 -3.984375 2.09375 -3.265625 C 2.09375 -2.804688 2.160156 -2.390625 2.296875 -2.015625 C 2.441406 -1.640625 2.648438 -1.335938 2.921875 -1.109375 C 3.191406 -0.878906 3.523438 -0.765625 3.921875 -0.765625 Z M 3.921875 -0.765625 "/></g></g></g><g fill="#a6a6a6" fill-opacity="1"><g transform="translate(102.740356, 78.599414)"><g/></g></g><g fill="#a6a6a6" fill-opacity="1"><g transform="translate(105.615036, 78.599414)"><g><path d="M 4.3125 -5.609375 L 2.859375 -5.609375 L 2.859375 -1.59375 C 2.859375 -1.363281 2.878906 -1.195312 2.921875 -1.09375 C 2.972656 -0.988281 3.054688 -0.921875 3.171875 -0.890625 C 3.285156 -0.859375 3.441406 -0.84375 3.640625 -0.84375 L 4.359375 -0.84375 L 4.359375 -0.078125 C 4.273438 -0.046875 4.148438 -0.0195312 3.984375 0 C 3.828125 0.0195312 3.628906 0.03125 3.390625 0.03125 C 2.953125 0.03125 2.609375 -0.0234375 2.359375 -0.140625 C 2.117188 -0.265625 1.945312 -0.445312 1.84375 -0.6875 C 1.75 -0.925781 1.703125 -1.21875 1.703125 -1.5625 L 1.703125 -5.609375 L 0.65625 -5.609375 L 0.65625 -6.453125 L 1.734375 -6.453125 L 2.015625 -8.328125 L 2.859375 -8.328125 L 2.859375 -6.453125 L 4.3125 -6.453125 Z M 4.3125 -5.609375 "/></g></g></g><g fill="#a6a6a6" fill-opacity="1"><g transform="translate(110.634804, 78.599414)"><g><path d="M 3.515625 0.125 C 2.921875 0.125 2.398438 0 1.953125 -0.25 C 1.515625 -0.507812 1.171875 -0.882812 0.921875 -1.375 C 0.679688 -1.875 0.5625 -2.484375 0.5625 -3.203125 C 0.5625 -3.867188 0.671875 -4.457031 0.890625 -4.96875 C 1.117188 -5.476562 1.453125 -5.875 1.890625 -6.15625 C 2.335938 -6.4375 2.878906 -6.578125 3.515625 -6.578125 C 4.109375 -6.578125 4.625 -6.445312 5.0625 -6.1875 C 5.5 -5.925781 5.835938 -5.539062 6.078125 -5.03125 C 6.328125 -4.53125 6.453125 -3.921875 6.453125 -3.203125 C 6.453125 -2.546875 6.335938 -1.96875 6.109375 -1.46875 C 5.890625 -0.96875 5.5625 -0.578125 5.125 -0.296875 C 4.6875 -0.015625 4.148438 0.125 3.515625 0.125 Z M 3.515625 -0.78125 C 3.898438 -0.78125 4.222656 -0.878906 4.484375 -1.078125 C 4.753906 -1.273438 4.957031 -1.554688 5.09375 -1.921875 C 5.238281 -2.285156 5.3125 -2.71875 5.3125 -3.21875 C 5.3125 -3.6875 5.25 -4.101562 5.125 -4.46875 C 5 -4.832031 4.804688 -5.125 4.546875 -5.34375 C 4.285156 -5.5625 3.941406 -5.671875 3.515625 -5.671875 C 3.128906 -5.671875 2.800781 -5.570312 2.53125 -5.375 C 2.257812 -5.1875 2.050781 -4.90625 1.90625 -4.53125 C 1.769531 -4.164062 1.703125 -3.726562 1.703125 -3.21875 C 1.703125 -2.769531 1.765625 -2.359375 1.890625 -1.984375 C 2.015625 -1.617188 2.207031 -1.328125 2.46875 -1.109375 C 2.738281 -0.890625 3.085938 -0.78125 3.515625 -0.78125 Z M 3.515625 -0.78125 "/></g></g></g><g fill="#a6a6a6" fill-opacity="1"><g transform="translate(117.64377, 78.599414)"><g/></g></g><g fill="#a6a6a6" fill-opacity="1"><g transform="translate(120.51845, 78.599414)"><g><path d="M 1.453125 -9.015625 L 6.84375 -9.015625 L 6.8125 -8.015625 L 2.4375 -8.015625 L 2.21875 -5.109375 C 2.507812 -5.390625 2.832031 -5.585938 3.1875 -5.703125 C 3.550781 -5.816406 3.941406 -5.875 4.359375 -5.875 C 4.898438 -5.875 5.398438 -5.765625 5.859375 -5.546875 C 6.316406 -5.328125 6.679688 -5 6.953125 -4.5625 C 7.234375 -4.125 7.375 -3.585938 7.375 -2.953125 C 7.375 -2.328125 7.238281 -1.78125 6.96875 -1.3125 C 6.707031 -0.851562 6.328125 -0.492188 5.828125 -0.234375 C 5.335938 0.015625 4.765625 0.140625 4.109375 0.140625 C 3.546875 0.140625 3.03125 0.0390625 2.5625 -0.15625 C 2.09375 -0.351562 1.6875 -0.625 1.34375 -0.96875 C 1 -1.320312 0.75 -1.722656 0.59375 -2.171875 L 1.59375 -2.59375 C 1.75 -2.25 1.9375 -1.941406 2.15625 -1.671875 C 2.382812 -1.410156 2.65625 -1.203125 2.96875 -1.046875 C 3.28125 -0.898438 3.632812 -0.828125 4.03125 -0.828125 C 4.664062 -0.828125 5.175781 -1.015625 5.5625 -1.390625 C 5.957031 -1.765625 6.15625 -2.269531 6.15625 -2.90625 C 6.15625 -3.3125 6.0625 -3.660156 5.875 -3.953125 C 5.695312 -4.253906 5.453125 -4.488281 5.140625 -4.65625 C 4.828125 -4.820312 4.484375 -4.90625 4.109375 -4.90625 C 3.867188 -4.90625 3.640625 -4.878906 3.421875 -4.828125 C 3.210938 -4.785156 3.003906 -4.703125 2.796875 -4.578125 C 2.585938 -4.453125 2.367188 -4.265625 2.140625 -4.015625 C 2.117188 -4.003906 2.097656 -4 2.078125 -4 C 2.066406 -4 2.050781 -4.003906 2.03125 -4.015625 L 1.046875 -4.328125 Z M 1.453125 -9.015625 "/></g></g></g><g fill="#a6a6a6" fill-opacity="1"><g transform="translate(128.506432, 78.599414)"><g><path d="M 0.578125 -9.015625 L 6.90625 -9.015625 L 6.90625 -8.015625 C 6.582031 -7.578125 6.265625 -7.082031 5.953125 -6.53125 C 5.640625 -5.976562 5.34375 -5.398438 5.0625 -4.796875 C 4.78125 -4.191406 4.523438 -3.59375 4.296875 -3 C 4.078125 -2.414062 3.890625 -1.863281 3.734375 -1.34375 C 3.585938 -0.820312 3.492188 -0.375 3.453125 0 L 2.203125 0 C 2.273438 -0.414062 2.394531 -0.925781 2.5625 -1.53125 C 2.738281 -2.132812 2.96875 -2.796875 3.25 -3.515625 C 3.53125 -4.234375 3.867188 -4.976562 4.265625 -5.75 C 4.671875 -6.519531 5.128906 -7.273438 5.640625 -8.015625 L 0.578125 -8.015625 Z M 0.578125 -9.015625 "/></g></g></g><g fill="#a6a6a6" fill-opacity="1"><g transform="translate(135.995555, 78.599414)"><g/></g></g><g fill="#a6a6a6" fill-opacity="1"><g transform="translate(138.870235, 78.599414)"><g><path d="M 0.953125 0 L 0.953125 -9.265625 L 2.078125 -9.265625 L 2.078125 -5.5 C 2.179688 -5.675781 2.320312 -5.84375 2.5 -6 C 2.6875 -6.15625 2.910156 -6.28125 3.171875 -6.375 C 3.441406 -6.476562 3.75 -6.53125 4.09375 -6.53125 C 4.507812 -6.53125 4.882812 -6.453125 5.21875 -6.296875 C 5.5625 -6.140625 5.832031 -5.914062 6.03125 -5.625 C 6.238281 -5.34375 6.34375 -5.003906 6.34375 -4.609375 L 6.34375 0 L 5.1875 0 L 5.1875 -4.375 C 5.1875 -4.757812 5.050781 -5.054688 4.78125 -5.265625 C 4.519531 -5.484375 4.179688 -5.59375 3.765625 -5.59375 C 3.472656 -5.59375 3.195312 -5.546875 2.9375 -5.453125 C 2.6875 -5.359375 2.484375 -5.210938 2.328125 -5.015625 C 2.171875 -4.828125 2.09375 -4.585938 2.09375 -4.296875 L 2.09375 0 Z M 0.953125 0 "/></g></g></g><g fill="#a6a6a6" fill-opacity="1"><g transform="translate(146.060042, 78.599414)"><g><path d="M 3.515625 0.125 C 2.921875 0.125 2.398438 0 1.953125 -0.25 C 1.515625 -0.507812 1.171875 -0.882812 0.921875 -1.375 C 0.679688 -1.875 0.5625 -2.484375 0.5625 -3.203125 C 0.5625 -3.867188 0.671875 -4.457031 0.890625 -4.96875 C 1.117188 -5.476562 1.453125 -5.875 1.890625 -6.15625 C 2.335938 -6.4375 2.878906 -6.578125 3.515625 -6.578125 C 4.109375 -6.578125 4.625 -6.445312 5.0625 -6.1875 C 5.5 -5.925781 5.835938 -5.539062 6.078125 -5.03125 C 6.328125 -4.53125 6.453125 -3.921875 6.453125 -3.203125 C 6.453125 -2.546875 6.335938 -1.96875 6.109375 -1.46875 C 5.890625 -0.96875 5.5625 -0.578125 5.125 -0.296875 C 4.6875 -0.015625 4.148438 0.125 3.515625 0.125 Z M 3.515625 -0.78125 C 3.898438 -0.78125 4.222656 -0.878906 4.484375 -1.078125 C 4.753906 -1.273438 4.957031 -1.554688 5.09375 -1.921875 C 5.238281 -2.285156 5.3125 -2.71875 5.3125 -3.21875 C 5.3125 -3.6875 5.25 -4.101562 5.125 -4.46875 C 5 -4.832031 4.804688 -5.125 4.546875 -5.34375 C 4.285156 -5.5625 3.941406 -5.671875 3.515625 -5.671875 C 3.128906 -5.671875 2.800781 -5.570312 2.53125 -5.375 C 2.257812 -5.1875 2.050781 -4.90625 1.90625 -4.53125 C 1.769531 -4.164062 1.703125 -3.726562 1.703125 -3.21875 C 1.703125 -2.769531 1.765625 -2.359375 1.890625 -1.984375 C 2.015625 -1.617188 2.207031 -1.328125 2.46875 -1.109375 C 2.738281 -0.890625 3.085938 -0.78125 3.515625 -0.78125 Z M 3.515625 -0.78125 "/></g></g></g><g fill="#a6a6a6" fill-opacity="1"><g transform="translate(153.069009, 78.599414)"><g><path d="M 3.328125 0.125 C 2.984375 0.125 2.660156 0.078125 2.359375 -0.015625 C 2.066406 -0.109375 1.804688 -0.242188 1.578125 -0.421875 C 1.347656 -0.609375 1.164062 -0.835938 1.03125 -1.109375 C 0.90625 -1.390625 0.84375 -1.707031 0.84375 -2.0625 L 0.84375 -6.453125 L 2 -6.453125 L 2 -2.1875 C 2 -1.769531 2.128906 -1.425781 2.390625 -1.15625 C 2.648438 -0.894531 3.039062 -0.765625 3.5625 -0.765625 C 4.039062 -0.765625 4.421875 -0.890625 4.703125 -1.140625 C 4.992188 -1.390625 5.140625 -1.757812 5.140625 -2.25 L 5.140625 -6.453125 L 6.296875 -6.453125 L 6.296875 0 L 5.375 0 L 5.25 -1.234375 C 5.175781 -0.910156 5.039062 -0.648438 4.84375 -0.453125 C 4.65625 -0.253906 4.429688 -0.109375 4.171875 -0.015625 C 3.910156 0.078125 3.628906 0.125 3.328125 0.125 Z M 3.328125 0.125 "/></g></g></g><g fill="#a6a6a6" fill-opacity="1"><g transform="translate(160.208924, 78.599414)"><g><path d="M 0.953125 0 L 0.953125 -6.453125 L 2.046875 -6.453125 L 2.046875 -5.203125 C 2.160156 -5.515625 2.3125 -5.769531 2.5 -5.96875 C 2.695312 -6.164062 2.921875 -6.316406 3.171875 -6.421875 C 3.421875 -6.523438 3.679688 -6.578125 3.953125 -6.578125 C 4.054688 -6.578125 4.148438 -6.566406 4.234375 -6.546875 C 4.328125 -6.535156 4.398438 -6.515625 4.453125 -6.484375 L 4.453125 -5.375 C 4.390625 -5.40625 4.304688 -5.425781 4.203125 -5.4375 C 4.109375 -5.445312 4.03125 -5.453125 3.96875 -5.453125 C 3.707031 -5.460938 3.460938 -5.441406 3.234375 -5.390625 C 3.015625 -5.347656 2.816406 -5.269531 2.640625 -5.15625 C 2.472656 -5.039062 2.335938 -4.882812 2.234375 -4.6875 C 2.140625 -4.5 2.09375 -4.273438 2.09375 -4.015625 L 2.09375 0 Z M 0.953125 0 "/></g></g></g><g fill="#a6a6a6" fill-opacity="1"><g transform="translate(165.041625, 78.599414)"><g><path d="M 3.234375 0.125 C 2.785156 0.125 2.367188 0.0546875 1.984375 -0.078125 C 1.609375 -0.222656 1.289062 -0.441406 1.03125 -0.734375 C 0.78125 -1.035156 0.625 -1.414062 0.5625 -1.875 L 1.609375 -1.875 C 1.660156 -1.625 1.757812 -1.410156 1.90625 -1.234375 C 2.0625 -1.066406 2.253906 -0.941406 2.484375 -0.859375 C 2.710938 -0.773438 2.960938 -0.734375 3.234375 -0.734375 C 3.671875 -0.734375 4.019531 -0.8125 4.28125 -0.96875 C 4.550781 -1.132812 4.6875 -1.390625 4.6875 -1.734375 C 4.6875 -1.960938 4.613281 -2.148438 4.46875 -2.296875 C 4.332031 -2.441406 4.117188 -2.546875 3.828125 -2.609375 L 2.5 -2.9375 C 1.976562 -3.0625 1.5625 -3.253906 1.25 -3.515625 C 0.9375 -3.785156 0.78125 -4.160156 0.78125 -4.640625 C 0.769531 -5.023438 0.859375 -5.359375 1.046875 -5.640625 C 1.234375 -5.929688 1.507812 -6.160156 1.875 -6.328125 C 2.238281 -6.492188 2.691406 -6.578125 3.234375 -6.578125 C 3.929688 -6.578125 4.492188 -6.414062 4.921875 -6.09375 C 5.359375 -5.78125 5.582031 -5.320312 5.59375 -4.71875 L 4.578125 -4.71875 C 4.535156 -5.03125 4.394531 -5.273438 4.15625 -5.453125 C 3.925781 -5.628906 3.613281 -5.71875 3.21875 -5.71875 C 2.8125 -5.71875 2.476562 -5.632812 2.21875 -5.46875 C 1.957031 -5.3125 1.828125 -5.0625 1.828125 -4.71875 C 1.828125 -4.488281 1.914062 -4.304688 2.09375 -4.171875 C 2.28125 -4.046875 2.554688 -3.9375 2.921875 -3.84375 L 4.203125 -3.515625 C 4.503906 -3.441406 4.75 -3.335938 4.9375 -3.203125 C 5.132812 -3.078125 5.289062 -2.9375 5.40625 -2.78125 C 5.519531 -2.625 5.597656 -2.457031 5.640625 -2.28125 C 5.691406 -2.113281 5.71875 -1.953125 5.71875 -1.796875 C 5.71875 -1.398438 5.617188 -1.054688 5.421875 -0.765625 C 5.222656 -0.484375 4.941406 -0.265625 4.578125 -0.109375 C 4.210938 0.046875 3.765625 0.125 3.234375 0.125 Z M 3.234375 0.125 "/></g></g></g><g fill="#a6a6a6" fill-opacity="1"><g transform="translate(171.420782, 78.599414)"><g/></g></g><g fill="#a6a6a6" fill-opacity="1"><g transform="translate(174.295462, 78.599414)"><g><path d="M 2.734375 0.125 C 2.316406 0.125 1.945312 0.0507812 1.625 -0.09375 C 1.3125 -0.238281 1.0625 -0.453125 0.875 -0.734375 C 0.695312 -1.015625 0.609375 -1.351562 0.609375 -1.75 C 0.609375 -2.457031 0.859375 -2.984375 1.359375 -3.328125 C 1.859375 -3.679688 2.660156 -3.875 3.765625 -3.90625 L 4.90625 -3.9375 L 4.90625 -4.4375 C 4.90625 -4.832031 4.785156 -5.144531 4.546875 -5.375 C 4.316406 -5.601562 3.953125 -5.71875 3.453125 -5.71875 C 3.085938 -5.71875 2.765625 -5.628906 2.484375 -5.453125 C 2.203125 -5.285156 2.019531 -5.007812 1.9375 -4.625 L 0.921875 -4.625 C 0.941406 -5.039062 1.054688 -5.394531 1.265625 -5.6875 C 1.484375 -5.976562 1.78125 -6.195312 2.15625 -6.34375 C 2.539062 -6.5 2.992188 -6.578125 3.515625 -6.578125 C 4.078125 -6.578125 4.539062 -6.492188 4.90625 -6.328125 C 5.28125 -6.171875 5.554688 -5.9375 5.734375 -5.625 C 5.921875 -5.320312 6.015625 -4.945312 6.015625 -4.5 L 6.015625 0 L 5.03125 0 L 4.953125 -1.203125 C 4.703125 -0.703125 4.382812 -0.351562 4 -0.15625 C 3.613281 0.03125 3.191406 0.125 2.734375 0.125 Z M 3.09375 -0.703125 C 3.300781 -0.703125 3.507812 -0.738281 3.71875 -0.8125 C 3.9375 -0.894531 4.132812 -1.003906 4.3125 -1.140625 C 4.5 -1.273438 4.644531 -1.425781 4.75 -1.59375 C 4.851562 -1.769531 4.90625 -1.945312 4.90625 -2.125 L 4.90625 -3.21875 L 3.953125 -3.203125 C 3.460938 -3.191406 3.050781 -3.140625 2.71875 -3.046875 C 2.382812 -2.960938 2.132812 -2.820312 1.96875 -2.625 C 1.8125 -2.425781 1.734375 -2.171875 1.734375 -1.859375 C 1.734375 -1.492188 1.859375 -1.207031 2.109375 -1 C 2.359375 -0.800781 2.6875 -0.703125 3.09375 -0.703125 Z M 3.09375 -0.703125 "/></g></g></g><g fill="#a6a6a6" fill-opacity="1"><g transform="translate(181.335606, 78.599414)"><g><path d="M 0.953125 0 L 0.953125 -6.453125 L 2.0625 -6.453125 L 2.0625 -5.515625 C 2.164062 -5.691406 2.3125 -5.859375 2.5 -6.015625 C 2.6875 -6.171875 2.910156 -6.296875 3.171875 -6.390625 C 3.441406 -6.492188 3.75 -6.546875 4.09375 -6.546875 C 4.5 -6.546875 4.875 -6.460938 5.21875 -6.296875 C 5.5625 -6.128906 5.832031 -5.875 6.03125 -5.53125 C 6.238281 -5.195312 6.34375 -4.757812 6.34375 -4.21875 L 6.34375 0 L 5.1875 0 L 5.1875 -4.109375 C 5.1875 -4.609375 5.054688 -4.976562 4.796875 -5.21875 C 4.535156 -5.46875 4.191406 -5.59375 3.765625 -5.59375 C 3.472656 -5.59375 3.203125 -5.546875 2.953125 -5.453125 C 2.703125 -5.359375 2.492188 -5.210938 2.328125 -5.015625 C 2.171875 -4.828125 2.09375 -4.59375 2.09375 -4.3125 L 2.09375 0 Z M 0.953125 0 "/></g></g></g><g fill="#a6a6a6" fill-opacity="1"><g transform="translate(188.531651, 78.599414)"><g><path d="M 3.28125 0.125 C 2.445312 0.125 1.785156 -0.160156 1.296875 -0.734375 C 0.804688 -1.304688 0.5625 -2.144531 0.5625 -3.25 C 0.5625 -3.914062 0.65625 -4.5 0.84375 -5 C 1.039062 -5.5 1.332031 -5.882812 1.71875 -6.15625 C 2.113281 -6.4375 2.601562 -6.578125 3.1875 -6.578125 C 3.5 -6.578125 3.773438 -6.535156 4.015625 -6.453125 C 4.253906 -6.367188 4.457031 -6.265625 4.625 -6.140625 C 4.800781 -6.023438 4.941406 -5.90625 5.046875 -5.78125 C 5.160156 -5.65625 5.25 -5.535156 5.3125 -5.421875 L 5.3125 -9.265625 L 6.46875 -9.265625 L 6.46875 0 L 5.59375 0 L 5.46875 -1.328125 C 5.425781 -1.203125 5.359375 -1.054688 5.265625 -0.890625 C 5.171875 -0.722656 5.039062 -0.5625 4.875 -0.40625 C 4.707031 -0.25 4.492188 -0.117188 4.234375 -0.015625 C 3.972656 0.078125 3.65625 0.125 3.28125 0.125 Z M 3.484375 -0.765625 C 4.140625 -0.765625 4.609375 -0.960938 4.890625 -1.359375 C 5.171875 -1.753906 5.3125 -2.398438 5.3125 -3.296875 C 5.300781 -3.804688 5.234375 -4.238281 5.109375 -4.59375 C 4.992188 -4.945312 4.804688 -5.210938 4.546875 -5.390625 C 4.285156 -5.578125 3.941406 -5.671875 3.515625 -5.671875 C 2.984375 -5.671875 2.550781 -5.476562 2.21875 -5.09375 C 1.882812 -4.71875 1.71875 -4.117188 1.71875 -3.296875 C 1.71875 -2.492188 1.867188 -1.867188 2.171875 -1.421875 C 2.472656 -0.984375 2.910156 -0.765625 3.484375 -0.765625 Z M 3.484375 -0.765625 "/></g></g></g><g fill="#a6a6a6" fill-opacity="1"><g transform="translate(31.866478, 95.788673)"><g><path d="M 0.953125 0 L 0.953125 -6.453125 L 2.046875 -6.453125 L 2.046875 -5.203125 C 2.160156 -5.515625 2.3125 -5.769531 2.5 -5.96875 C 2.695312 -6.164062 2.921875 -6.316406 3.171875 -6.421875 C 3.421875 -6.523438 3.679688 -6.578125 3.953125 -6.578125 C 4.054688 -6.578125 4.148438 -6.566406 4.234375 -6.546875 C 4.328125 -6.535156 4.398438 -6.515625 4.453125 -6.484375 L 4.453125 -5.375 C 4.390625 -5.40625 4.304688 -5.425781 4.203125 -5.4375 C 4.109375 -5.445312 4.03125 -5.453125 3.96875 -5.453125 C 3.707031 -5.460938 3.460938 -5.441406 3.234375 -5.390625 C 3.015625 -5.347656 2.816406 -5.269531 2.640625 -5.15625 C 2.472656 -5.039062 2.335938 -4.882812 2.234375 -4.6875 C 2.140625 -4.5 2.09375 -4.273438 2.09375 -4.015625 L 2.09375 0 Z M 0.953125 0 "/></g></g></g><g fill="#a6a6a6" fill-opacity="1"><g transform="translate(36.699178, 95.788673)"><g><path d="M 1.78125 -2.953125 C 1.78125 -2.546875 1.847656 -2.175781 1.984375 -1.84375 C 2.117188 -1.519531 2.320312 -1.257812 2.59375 -1.0625 C 2.875 -0.863281 3.222656 -0.765625 3.640625 -0.765625 C 4.046875 -0.765625 4.394531 -0.859375 4.6875 -1.046875 C 4.988281 -1.242188 5.179688 -1.519531 5.265625 -1.875 L 6.359375 -1.875 C 6.273438 -1.445312 6.097656 -1.082031 5.828125 -0.78125 C 5.566406 -0.476562 5.242188 -0.25 4.859375 -0.09375 C 4.472656 0.0507812 4.070312 0.125 3.65625 0.125 C 3.050781 0.125 2.519531 -0.00390625 2.0625 -0.265625 C 1.613281 -0.523438 1.257812 -0.898438 1 -1.390625 C 0.738281 -1.878906 0.609375 -2.46875 0.609375 -3.15625 C 0.609375 -3.832031 0.722656 -4.425781 0.953125 -4.9375 C 1.191406 -5.445312 1.53125 -5.847656 1.96875 -6.140625 C 2.414062 -6.429688 2.953125 -6.578125 3.578125 -6.578125 C 4.179688 -6.578125 4.691406 -6.441406 5.109375 -6.171875 C 5.523438 -5.910156 5.84375 -5.539062 6.0625 -5.0625 C 6.28125 -4.59375 6.390625 -4.03125 6.390625 -3.375 L 6.390625 -2.953125 Z M 1.78125 -3.734375 L 5.28125 -3.734375 C 5.28125 -4.109375 5.21875 -4.441406 5.09375 -4.734375 C 4.96875 -5.035156 4.773438 -5.269531 4.515625 -5.4375 C 4.265625 -5.613281 3.945312 -5.703125 3.5625 -5.703125 C 3.164062 -5.703125 2.832031 -5.601562 2.5625 -5.40625 C 2.300781 -5.21875 2.101562 -4.972656 1.96875 -4.671875 C 1.84375 -4.367188 1.78125 -4.054688 1.78125 -3.734375 Z M 1.78125 -3.734375 "/></g></g></g><g fill="#a6a6a6" fill-opacity="1"><g transform="translate(43.72062, 95.788673)"><g><path d="M 3.515625 -6.578125 C 3.984375 -6.578125 4.398438 -6.488281 4.765625 -6.3125 C 5.140625 -6.132812 5.441406 -5.878906 5.671875 -5.546875 C 5.910156 -5.222656 6.054688 -4.84375 6.109375 -4.40625 L 5.09375 -4.40625 C 5.050781 -4.632812 4.960938 -4.84375 4.828125 -5.03125 C 4.691406 -5.21875 4.515625 -5.363281 4.296875 -5.46875 C 4.078125 -5.582031 3.820312 -5.640625 3.53125 -5.640625 C 2.976562 -5.640625 2.53125 -5.4375 2.1875 -5.03125 C 1.84375 -4.632812 1.671875 -4.023438 1.671875 -3.203125 C 1.671875 -2.460938 1.828125 -1.867188 2.140625 -1.421875 C 2.460938 -0.972656 2.929688 -0.75 3.546875 -0.75 C 3.835938 -0.75 4.09375 -0.804688 4.3125 -0.921875 C 4.53125 -1.035156 4.707031 -1.1875 4.84375 -1.375 C 4.976562 -1.570312 5.0625 -1.773438 5.09375 -1.984375 L 6.109375 -1.984375 C 6.046875 -1.554688 5.894531 -1.179688 5.65625 -0.859375 C 5.425781 -0.546875 5.125 -0.300781 4.75 -0.125 C 4.382812 0.0390625 3.972656 0.125 3.515625 0.125 C 2.941406 0.125 2.429688 0 1.984375 -0.25 C 1.535156 -0.507812 1.1875 -0.882812 0.9375 -1.375 C 0.6875 -1.875 0.5625 -2.484375 0.5625 -3.203125 C 0.5625 -3.867188 0.675781 -4.453125 0.90625 -4.953125 C 1.132812 -5.460938 1.46875 -5.859375 1.90625 -6.140625 C 2.351562 -6.429688 2.890625 -6.578125 3.515625 -6.578125 Z M 3.515625 -6.578125 "/></g></g></g><g fill="#a6a6a6" fill-opacity="1"><g transform="translate(50.448985, 95.788673)"><g><path d="M 0.953125 0 L 0.953125 -9.265625 L 2.078125 -9.265625 L 2.078125 -5.5 C 2.179688 -5.675781 2.320312 -5.84375 2.5 -6 C 2.6875 -6.15625 2.910156 -6.28125 3.171875 -6.375 C 3.441406 -6.476562 3.75 -6.53125 4.09375 -6.53125 C 4.507812 -6.53125 4.882812 -6.453125 5.21875 -6.296875 C 5.5625 -6.140625 5.832031 -5.914062 6.03125 -5.625 C 6.238281 -5.34375 6.34375 -5.003906 6.34375 -4.609375 L 6.34375 0 L 5.1875 0 L 5.1875 -4.375 C 5.1875 -4.757812 5.050781 -5.054688 4.78125 -5.265625 C 4.519531 -5.484375 4.179688 -5.59375 3.765625 -5.59375 C 3.472656 -5.59375 3.195312 -5.546875 2.9375 -5.453125 C 2.6875 -5.359375 2.484375 -5.210938 2.328125 -5.015625 C 2.171875 -4.828125 2.09375 -4.585938 2.09375 -4.296875 L 2.09375 0 Z M 0.953125 0 "/></g></g></g><g fill="#a6a6a6" fill-opacity="1"><g transform="translate(57.638792, 95.788673)"><g><path d="M 2.734375 0.125 C 2.316406 0.125 1.945312 0.0507812 1.625 -0.09375 C 1.3125 -0.238281 1.0625 -0.453125 0.875 -0.734375 C 0.695312 -1.015625 0.609375 -1.351562 0.609375 -1.75 C 0.609375 -2.457031 0.859375 -2.984375 1.359375 -3.328125 C 1.859375 -3.679688 2.660156 -3.875 3.765625 -3.90625 L 4.90625 -3.9375 L 4.90625 -4.4375 C 4.90625 -4.832031 4.785156 -5.144531 4.546875 -5.375 C 4.316406 -5.601562 3.953125 -5.71875 3.453125 -5.71875 C 3.085938 -5.71875 2.765625 -5.628906 2.484375 -5.453125 C 2.203125 -5.285156 2.019531 -5.007812 1.9375 -4.625 L 0.921875 -4.625 C 0.941406 -5.039062 1.054688 -5.394531 1.265625 -5.6875 C 1.484375 -5.976562 1.78125 -6.195312 2.15625 -6.34375 C 2.539062 -6.5 2.992188 -6.578125 3.515625 -6.578125 C 4.078125 -6.578125 4.539062 -6.492188 4.90625 -6.328125 C 5.28125 -6.171875 5.554688 -5.9375 5.734375 -5.625 C 5.921875 -5.320312 6.015625 -4.945312 6.015625 -4.5 L 6.015625 0 L 5.03125 0 L 4.953125 -1.203125 C 4.703125 -0.703125 4.382812 -0.351562 4 -0.15625 C 3.613281 0.03125 3.191406 0.125 2.734375 0.125 Z M 3.09375 -0.703125 C 3.300781 -0.703125 3.507812 -0.738281 3.71875 -0.8125 C 3.9375 -0.894531 4.132812 -1.003906 4.3125 -1.140625 C 4.5 -1.273438 4.644531 -1.425781 4.75 -1.59375 C 4.851562 -1.769531 4.90625 -1.945312 4.90625 -2.125 L 4.90625 -3.21875 L 3.953125 -3.203125 C 3.460938 -3.191406 3.050781 -3.140625 2.71875 -3.046875 C 2.382812 -2.960938 2.132812 -2.820312 1.96875 -2.625 C 1.8125 -2.425781 1.734375 -2.171875 1.734375 -1.859375 C 1.734375 -1.492188 1.859375 -1.207031 2.109375 -1 C 2.359375 -0.800781 2.6875 -0.703125 3.09375 -0.703125 Z M 3.09375 -0.703125 "/></g></g></g><g fill="#a6a6a6" fill-opacity="1"><g transform="translate(64.678936, 95.788673)"><g><path d="M 0.953125 0 L 0.953125 -6.453125 L 2.046875 -6.453125 L 2.046875 -5.203125 C 2.160156 -5.515625 2.3125 -5.769531 2.5 -5.96875 C 2.695312 -6.164062 2.921875 -6.316406 3.171875 -6.421875 C 3.421875 -6.523438 3.679688 -6.578125 3.953125 -6.578125 C 4.054688 -6.578125 4.148438 -6.566406 4.234375 -6.546875 C 4.328125 -6.535156 4.398438 -6.515625 4.453125 -6.484375 L 4.453125 -5.375 C 4.390625 -5.40625 4.304688 -5.425781 4.203125 -5.4375 C 4.109375 -5.445312 4.03125 -5.453125 3.96875 -5.453125 C 3.707031 -5.460938 3.460938 -5.441406 3.234375 -5.390625 C 3.015625 -5.347656 2.816406 -5.269531 2.640625 -5.15625 C 2.472656 -5.039062 2.335938 -4.882812 2.234375 -4.6875 C 2.140625 -4.5 2.09375 -4.273438 2.09375 -4.015625 L 2.09375 0 Z M 0.953125 0 "/></g></g></g><g fill="#a6a6a6" fill-opacity="1"><g transform="translate(69.511636, 95.788673)"><g><path d="M 3.671875 2.125 C 2.660156 2.125 1.875 1.976562 1.3125 1.6875 C 0.75 1.394531 0.46875 0.976562 0.46875 0.4375 C 0.46875 0.207031 0.519531 0.0078125 0.625 -0.15625 C 0.726562 -0.320312 0.851562 -0.457031 1 -0.5625 C 1.15625 -0.675781 1.296875 -0.765625 1.421875 -0.828125 C 1.554688 -0.890625 1.640625 -0.9375 1.671875 -0.96875 C 1.609375 -1.007812 1.519531 -1.0625 1.40625 -1.125 C 1.300781 -1.1875 1.207031 -1.269531 1.125 -1.375 C 1.050781 -1.476562 1.015625 -1.613281 1.015625 -1.78125 C 1.015625 -1.976562 1.109375 -2.160156 1.296875 -2.328125 C 1.492188 -2.503906 1.78125 -2.632812 2.15625 -2.71875 C 1.769531 -2.90625 1.472656 -3.15625 1.265625 -3.46875 C 1.054688 -3.789062 0.953125 -4.132812 0.953125 -4.5 C 0.953125 -4.914062 1.0625 -5.273438 1.28125 -5.578125 C 1.507812 -5.890625 1.832031 -6.128906 2.25 -6.296875 C 2.675781 -6.460938 3.175781 -6.546875 3.75 -6.546875 C 4.164062 -6.546875 4.519531 -6.492188 4.8125 -6.390625 C 5.101562 -6.296875 5.367188 -6.160156 5.609375 -5.984375 C 5.671875 -6.015625 5.773438 -6.054688 5.921875 -6.109375 C 6.066406 -6.171875 6.226562 -6.238281 6.40625 -6.3125 C 6.582031 -6.382812 6.742188 -6.453125 6.890625 -6.515625 C 7.046875 -6.578125 7.164062 -6.628906 7.25 -6.671875 L 7.25 -5.59375 L 6.125 -5.390625 C 6.1875 -5.253906 6.234375 -5.109375 6.265625 -4.953125 C 6.304688 -4.796875 6.328125 -4.644531 6.328125 -4.5 C 6.328125 -4.125 6.226562 -3.78125 6.03125 -3.46875 C 5.832031 -3.164062 5.535156 -2.921875 5.140625 -2.734375 C 4.742188 -2.554688 4.242188 -2.46875 3.640625 -2.46875 C 3.597656 -2.46875 3.535156 -2.46875 3.453125 -2.46875 C 3.378906 -2.46875 3.316406 -2.472656 3.265625 -2.484375 C 2.816406 -2.472656 2.507812 -2.421875 2.34375 -2.328125 C 2.175781 -2.242188 2.09375 -2.148438 2.09375 -2.046875 C 2.09375 -1.929688 2.1875 -1.847656 2.375 -1.796875 C 2.5625 -1.753906 2.878906 -1.71875 3.328125 -1.6875 C 3.492188 -1.675781 3.695312 -1.664062 3.9375 -1.65625 C 4.175781 -1.644531 4.441406 -1.628906 4.734375 -1.609375 C 5.410156 -1.566406 5.929688 -1.390625 6.296875 -1.078125 C 6.660156 -0.773438 6.84375 -0.367188 6.84375 0.140625 C 6.84375 0.722656 6.582031 1.195312 6.0625 1.5625 C 5.539062 1.9375 4.742188 2.125 3.671875 2.125 Z M 3.875 1.390625 C 4.46875 1.390625 4.921875 1.300781 5.234375 1.125 C 5.554688 0.945312 5.71875 0.675781 5.71875 0.3125 C 5.71875 0.0507812 5.617188 -0.15625 5.421875 -0.3125 C 5.234375 -0.476562 4.941406 -0.578125 4.546875 -0.609375 L 2.734375 -0.71875 C 2.578125 -0.726562 2.410156 -0.6875 2.234375 -0.59375 C 2.054688 -0.507812 1.90625 -0.390625 1.78125 -0.234375 C 1.664062 -0.078125 1.609375 0.101562 1.609375 0.3125 C 1.609375 0.644531 1.789062 0.90625 2.15625 1.09375 C 2.53125 1.289062 3.101562 1.390625 3.875 1.390625 Z M 3.671875 -3.203125 C 4.140625 -3.203125 4.515625 -3.3125 4.796875 -3.53125 C 5.085938 -3.75 5.234375 -4.070312 5.234375 -4.5 C 5.234375 -4.9375 5.085938 -5.265625 4.796875 -5.484375 C 4.515625 -5.710938 4.140625 -5.828125 3.671875 -5.828125 C 3.203125 -5.828125 2.820312 -5.710938 2.53125 -5.484375 C 2.25 -5.253906 2.109375 -4.925781 2.109375 -4.5 C 2.109375 -4.09375 2.242188 -3.773438 2.515625 -3.546875 C 2.796875 -3.316406 3.179688 -3.203125 3.671875 -3.203125 Z M 3.671875 -3.203125 "/></g></g></g><g fill="#a6a6a6" fill-opacity="1"><g transform="translate(77.256421, 95.788673)"><g><path d="M 1.78125 -2.953125 C 1.78125 -2.546875 1.847656 -2.175781 1.984375 -1.84375 C 2.117188 -1.519531 2.320312 -1.257812 2.59375 -1.0625 C 2.875 -0.863281 3.222656 -0.765625 3.640625 -0.765625 C 4.046875 -0.765625 4.394531 -0.859375 4.6875 -1.046875 C 4.988281 -1.242188 5.179688 -1.519531 5.265625 -1.875 L 6.359375 -1.875 C 6.273438 -1.445312 6.097656 -1.082031 5.828125 -0.78125 C 5.566406 -0.476562 5.242188 -0.25 4.859375 -0.09375 C 4.472656 0.0507812 4.070312 0.125 3.65625 0.125 C 3.050781 0.125 2.519531 -0.00390625 2.0625 -0.265625 C 1.613281 -0.523438 1.257812 -0.898438 1 -1.390625 C 0.738281 -1.878906 0.609375 -2.46875 0.609375 -3.15625 C 0.609375 -3.832031 0.722656 -4.425781 0.953125 -4.9375 C 1.191406 -5.445312 1.53125 -5.847656 1.96875 -6.140625 C 2.414062 -6.429688 2.953125 -6.578125 3.578125 -6.578125 C 4.179688 -6.578125 4.691406 -6.441406 5.109375 -6.171875 C 5.523438 -5.910156 5.84375 -5.539062 6.0625 -5.0625 C 6.28125 -4.59375 6.390625 -4.03125 6.390625 -3.375 L 6.390625 -2.953125 Z M 1.78125 -3.734375 L 5.28125 -3.734375 C 5.28125 -4.109375 5.21875 -4.441406 5.09375 -4.734375 C 4.96875 -5.035156 4.773438 -5.269531 4.515625 -5.4375 C 4.265625 -5.613281 3.945312 -5.703125 3.5625 -5.703125 C 3.164062 -5.703125 2.832031 -5.601562 2.5625 -5.40625 C 2.300781 -5.21875 2.101562 -4.972656 1.96875 -4.671875 C 1.84375 -4.367188 1.78125 -4.054688 1.78125 -3.734375 Z M 1.78125 -3.734375 "/></g></g></g><g fill="#a6a6a6" fill-opacity="1"><g transform="translate(84.277863, 95.788673)"><g/></g></g><g fill="#a6a6a6" fill-opacity="1"><g transform="translate(87.152543, 95.788673)"><g><path d="M 2.203125 -6.453125 L 2.203125 0 L 1.078125 0 L 1.078125 -6.453125 Z M 2.21875 -9.015625 L 2.21875 -7.8125 L 1.046875 -7.8125 L 1.046875 -9.015625 Z M 2.21875 -9.015625 "/></g></g></g><g fill="#a6a6a6" fill-opacity="1"><g transform="translate(90.42631, 95.788673)"><g><path d="M 0.953125 0 L 0.953125 -6.453125 L 2.0625 -6.453125 L 2.0625 -5.515625 C 2.164062 -5.691406 2.3125 -5.859375 2.5 -6.015625 C 2.6875 -6.171875 2.910156 -6.296875 3.171875 -6.390625 C 3.441406 -6.492188 3.75 -6.546875 4.09375 -6.546875 C 4.5 -6.546875 4.875 -6.460938 5.21875 -6.296875 C 5.5625 -6.128906 5.832031 -5.875 6.03125 -5.53125 C 6.238281 -5.195312 6.34375 -4.757812 6.34375 -4.21875 L 6.34375 0 L 5.1875 0 L 5.1875 -4.109375 C 5.1875 -4.609375 5.054688 -4.976562 4.796875 -5.21875 C 4.535156 -5.46875 4.191406 -5.59375 3.765625 -5.59375 C 3.472656 -5.59375 3.203125 -5.546875 2.953125 -5.453125 C 2.703125 -5.359375 2.492188 -5.210938 2.328125 -5.015625 C 2.171875 -4.828125 2.09375 -4.59375 2.09375 -4.3125 L 2.09375 0 Z M 0.953125 0 "/></g></g></g><g fill="#a6a6a6" fill-opacity="1"><g transform="translate(97.622356, 95.788673)"><g/></g></g><g fill="#a6a6a6" fill-opacity="1"><g transform="translate(100.497036, 95.788673)"><g><path d="M 2.28125 0.28125 C 2.28125 0.882812 2.148438 1.332031 1.890625 1.625 C 1.640625 1.914062 1.1875 2.0625 0.53125 2.0625 C 0.175781 2.0625 -0.046875 2.035156 -0.140625 1.984375 C -0.234375 1.941406 -0.28125 1.921875 -0.28125 1.921875 L -0.28125 1.15625 L 0.34375 1.125 C 0.632812 1.101562 0.835938 1.023438 0.953125 0.890625 C 1.078125 0.753906 1.140625 0.539062 1.140625 0.25 L 1.140625 -6.453125 L 2.28125 -6.453125 Z M 2.3125 -9.015625 L 2.3125 -7.8125 L 1.09375 -7.8125 L 1.09375 -9.015625 Z M 2.3125 -9.015625 "/></g></g></g><g fill="#a6a6a6" fill-opacity="1"><g transform="translate(103.770803, 95.788673)"><g><path d="M 3.328125 0.125 C 2.984375 0.125 2.660156 0.078125 2.359375 -0.015625 C 2.066406 -0.109375 1.804688 -0.242188 1.578125 -0.421875 C 1.347656 -0.609375 1.164062 -0.835938 1.03125 -1.109375 C 0.90625 -1.390625 0.84375 -1.707031 0.84375 -2.0625 L 0.84375 -6.453125 L 2 -6.453125 L 2 -2.1875 C 2 -1.769531 2.128906 -1.425781 2.390625 -1.15625 C 2.648438 -0.894531 3.039062 -0.765625 3.5625 -0.765625 C 4.039062 -0.765625 4.421875 -0.890625 4.703125 -1.140625 C 4.992188 -1.390625 5.140625 -1.757812 5.140625 -2.25 L 5.140625 -6.453125 L 6.296875 -6.453125 L 6.296875 0 L 5.375 0 L 5.25 -1.234375 C 5.175781 -0.910156 5.039062 -0.648438 4.84375 -0.453125 C 4.65625 -0.253906 4.429688 -0.109375 4.171875 -0.015625 C 3.910156 0.078125 3.628906 0.125 3.328125 0.125 Z M 3.328125 0.125 "/></g></g></g><g fill="#a6a6a6" fill-opacity="1"><g transform="translate(110.910719, 95.788673)"><g><path d="M 3.234375 0.125 C 2.785156 0.125 2.367188 0.0546875 1.984375 -0.078125 C 1.609375 -0.222656 1.289062 -0.441406 1.03125 -0.734375 C 0.78125 -1.035156 0.625 -1.414062 0.5625 -1.875 L 1.609375 -1.875 C 1.660156 -1.625 1.757812 -1.410156 1.90625 -1.234375 C 2.0625 -1.066406 2.253906 -0.941406 2.484375 -0.859375 C 2.710938 -0.773438 2.960938 -0.734375 3.234375 -0.734375 C 3.671875 -0.734375 4.019531 -0.8125 4.28125 -0.96875 C 4.550781 -1.132812 4.6875 -1.390625 4.6875 -1.734375 C 4.6875 -1.960938 4.613281 -2.148438 4.46875 -2.296875 C 4.332031 -2.441406 4.117188 -2.546875 3.828125 -2.609375 L 2.5 -2.9375 C 1.976562 -3.0625 1.5625 -3.253906 1.25 -3.515625 C 0.9375 -3.785156 0.78125 -4.160156 0.78125 -4.640625 C 0.769531 -5.023438 0.859375 -5.359375 1.046875 -5.640625 C 1.234375 -5.929688 1.507812 -6.160156 1.875 -6.328125 C 2.238281 -6.492188 2.691406 -6.578125 3.234375 -6.578125 C 3.929688 -6.578125 4.492188 -6.414062 4.921875 -6.09375 C 5.359375 -5.78125 5.582031 -5.320312 5.59375 -4.71875 L 4.578125 -4.71875 C 4.535156 -5.03125 4.394531 -5.273438 4.15625 -5.453125 C 3.925781 -5.628906 3.613281 -5.71875 3.21875 -5.71875 C 2.8125 -5.71875 2.476562 -5.632812 2.21875 -5.46875 C 1.957031 -5.3125 1.828125 -5.0625 1.828125 -4.71875 C 1.828125 -4.488281 1.914062 -4.304688 2.09375 -4.171875 C 2.28125 -4.046875 2.554688 -3.9375 2.921875 -3.84375 L 4.203125 -3.515625 C 4.503906 -3.441406 4.75 -3.335938 4.9375 -3.203125 C 5.132812 -3.078125 5.289062 -2.9375 5.40625 -2.78125 C 5.519531 -2.625 5.597656 -2.457031 5.640625 -2.28125 C 5.691406 -2.113281 5.71875 -1.953125 5.71875 -1.796875 C 5.71875 -1.398438 5.617188 -1.054688 5.421875 -0.765625 C 5.222656 -0.484375 4.941406 -0.265625 4.578125 -0.109375 C 4.210938 0.046875 3.765625 0.125 3.234375 0.125 Z M 3.234375 0.125 "/></g></g></g><g fill="#a6a6a6" fill-opacity="1"><g transform="translate(117.289876, 95.788673)"><g><path d="M 4.3125 -5.609375 L 2.859375 -5.609375 L 2.859375 -1.59375 C 2.859375 -1.363281 2.878906 -1.195312 2.921875 -1.09375 C 2.972656 -0.988281 3.054688 -0.921875 3.171875 -0.890625 C 3.285156 -0.859375 3.441406 -0.84375 3.640625 -0.84375 L 4.359375 -0.84375 L 4.359375 -0.078125 C 4.273438 -0.046875 4.148438 -0.0195312 3.984375 0 C 3.828125 0.0195312 3.628906 0.03125 3.390625 0.03125 C 2.953125 0.03125 2.609375 -0.0234375 2.359375 -0.140625 C 2.117188 -0.265625 1.945312 -0.445312 1.84375 -0.6875 C 1.75 -0.925781 1.703125 -1.21875 1.703125 -1.5625 L 1.703125 -5.609375 L 0.65625 -5.609375 L 0.65625 -6.453125 L 1.734375 -6.453125 L 2.015625 -8.328125 L 2.859375 -8.328125 L 2.859375 -6.453125 L 4.3125 -6.453125 Z M 4.3125 -5.609375 "/></g></g></g><g fill="#a6a6a6" fill-opacity="1"><g transform="translate(122.309644, 95.788673)"><g/></g></g><g fill="#a6a6a6" fill-opacity="1"><g transform="translate(125.184324, 95.788673)"><g><path d="M 0.765625 0 L 0.765625 -1.078125 C 0.765625 -1.535156 0.851562 -1.929688 1.03125 -2.265625 C 1.207031 -2.609375 1.4375 -2.90625 1.71875 -3.15625 C 2 -3.40625 2.304688 -3.628906 2.640625 -3.828125 C 2.984375 -4.023438 3.320312 -4.21875 3.65625 -4.40625 C 4 -4.59375 4.3125 -4.785156 4.59375 -4.984375 C 4.882812 -5.179688 5.113281 -5.40625 5.28125 -5.65625 C 5.457031 -5.914062 5.546875 -6.222656 5.546875 -6.578125 C 5.546875 -7.035156 5.382812 -7.40625 5.0625 -7.6875 C 4.738281 -7.976562 4.300781 -8.125 3.75 -8.125 C 3.164062 -8.125 2.691406 -7.957031 2.328125 -7.625 C 1.972656 -7.289062 1.773438 -6.847656 1.734375 -6.296875 L 0.578125 -6.296875 C 0.585938 -6.816406 0.710938 -7.289062 0.953125 -7.71875 C 1.203125 -8.144531 1.5625 -8.488281 2.03125 -8.75 C 2.507812 -9.007812 3.097656 -9.140625 3.796875 -9.140625 C 4.398438 -9.140625 4.921875 -9.03125 5.359375 -8.8125 C 5.804688 -8.601562 6.148438 -8.304688 6.390625 -7.921875 C 6.640625 -7.535156 6.765625 -7.085938 6.765625 -6.578125 C 6.765625 -6.109375 6.675781 -5.707031 6.5 -5.375 C 6.332031 -5.039062 6.109375 -4.753906 5.828125 -4.515625 C 5.546875 -4.273438 5.238281 -4.054688 4.90625 -3.859375 C 4.570312 -3.671875 4.238281 -3.488281 3.90625 -3.3125 C 3.570312 -3.132812 3.265625 -2.945312 2.984375 -2.75 C 2.703125 -2.5625 2.476562 -2.34375 2.3125 -2.09375 C 2.144531 -1.84375 2.0625 -1.546875 2.0625 -1.203125 L 2.0625 -1.015625 L 6.8125 -1.015625 L 6.8125 0 Z M 0.765625 0 "/></g></g></g><g fill="#a6a6a6" fill-opacity="1"><g transform="translate(132.617329, 95.788673)"><g/></g></g><g fill="#a6a6a6" fill-opacity="1"><g transform="translate(135.492009, 95.788673)"><g><path d="M 0.953125 0 L 0.953125 -9.265625 L 2.078125 -9.265625 L 2.078125 -5.5 C 2.179688 -5.675781 2.320312 -5.84375 2.5 -6 C 2.6875 -6.15625 2.910156 -6.28125 3.171875 -6.375 C 3.441406 -6.476562 3.75 -6.53125 4.09375 -6.53125 C 4.507812 -6.53125 4.882812 -6.453125 5.21875 -6.296875 C 5.5625 -6.140625 5.832031 -5.914062 6.03125 -5.625 C 6.238281 -5.34375 6.34375 -5.003906 6.34375 -4.609375 L 6.34375 0 L 5.1875 0 L 5.1875 -4.375 C 5.1875 -4.757812 5.050781 -5.054688 4.78125 -5.265625 C 4.519531 -5.484375 4.179688 -5.59375 3.765625 -5.59375 C 3.472656 -5.59375 3.195312 -5.546875 2.9375 -5.453125 C 2.6875 -5.359375 2.484375 -5.210938 2.328125 -5.015625 C 2.171875 -4.828125 2.09375 -4.585938 2.09375 -4.296875 L 2.09375 0 Z M 0.953125 0 "/></g></g></g><g fill="#a6a6a6" fill-opacity="1"><g transform="translate(142.681816, 95.788673)"><g><path d="M 3.515625 0.125 C 2.921875 0.125 2.398438 0 1.953125 -0.25 C 1.515625 -0.507812 1.171875 -0.882812 0.921875 -1.375 C 0.679688 -1.875 0.5625 -2.484375 0.5625 -3.203125 C 0.5625 -3.867188 0.671875 -4.457031 0.890625 -4.96875 C 1.117188 -5.476562 1.453125 -5.875 1.890625 -6.15625 C 2.335938 -6.4375 2.878906 -6.578125 3.515625 -6.578125 C 4.109375 -6.578125 4.625 -6.445312 5.0625 -6.1875 C 5.5 -5.925781 5.835938 -5.539062 6.078125 -5.03125 C 6.328125 -4.53125 6.453125 -3.921875 6.453125 -3.203125 C 6.453125 -2.546875 6.335938 -1.96875 6.109375 -1.46875 C 5.890625 -0.96875 5.5625 -0.578125 5.125 -0.296875 C 4.6875 -0.015625 4.148438 0.125 3.515625 0.125 Z M 3.515625 -0.78125 C 3.898438 -0.78125 4.222656 -0.878906 4.484375 -1.078125 C 4.753906 -1.273438 4.957031 -1.554688 5.09375 -1.921875 C 5.238281 -2.285156 5.3125 -2.71875 5.3125 -3.21875 C 5.3125 -3.6875 5.25 -4.101562 5.125 -4.46875 C 5 -4.832031 4.804688 -5.125 4.546875 -5.34375 C 4.285156 -5.5625 3.941406 -5.671875 3.515625 -5.671875 C 3.128906 -5.671875 2.800781 -5.570312 2.53125 -5.375 C 2.257812 -5.1875 2.050781 -4.90625 1.90625 -4.53125 C 1.769531 -4.164062 1.703125 -3.726562 1.703125 -3.21875 C 1.703125 -2.769531 1.765625 -2.359375 1.890625 -1.984375 C 2.015625 -1.617188 2.207031 -1.328125 2.46875 -1.109375 C 2.738281 -0.890625 3.085938 -0.78125 3.515625 -0.78125 Z M 3.515625 -0.78125 "/></g></g></g><g fill="#a6a6a6" fill-opacity="1"><g transform="translate(149.690783, 95.788673)"><g><path d="M 3.328125 0.125 C 2.984375 0.125 2.660156 0.078125 2.359375 -0.015625 C 2.066406 -0.109375 1.804688 -0.242188 1.578125 -0.421875 C 1.347656 -0.609375 1.164062 -0.835938 1.03125 -1.109375 C 0.90625 -1.390625 0.84375 -1.707031 0.84375 -2.0625 L 0.84375 -6.453125 L 2 -6.453125 L 2 -2.1875 C 2 -1.769531 2.128906 -1.425781 2.390625 -1.15625 C 2.648438 -0.894531 3.039062 -0.765625 3.5625 -0.765625 C 4.039062 -0.765625 4.421875 -0.890625 4.703125 -1.140625 C 4.992188 -1.390625 5.140625 -1.757812 5.140625 -2.25 L 5.140625 -6.453125 L 6.296875 -6.453125 L 6.296875 0 L 5.375 0 L 5.25 -1.234375 C 5.175781 -0.910156 5.039062 -0.648438 4.84375 -0.453125 C 4.65625 -0.253906 4.429688 -0.109375 4.171875 -0.015625 C 3.910156 0.078125 3.628906 0.125 3.328125 0.125 Z M 3.328125 0.125 "/></g></g></g><g fill="#a6a6a6" fill-opacity="1"><g transform="translate(156.830698, 95.788673)"><g><path d="M 0.953125 0 L 0.953125 -6.453125 L 2.046875 -6.453125 L 2.046875 -5.203125 C 2.160156 -5.515625 2.3125 -5.769531 2.5 -5.96875 C 2.695312 -6.164062 2.921875 -6.316406 3.171875 -6.421875 C 3.421875 -6.523438 3.679688 -6.578125 3.953125 -6.578125 C 4.054688 -6.578125 4.148438 -6.566406 4.234375 -6.546875 C 4.328125 -6.535156 4.398438 -6.515625 4.453125 -6.484375 L 4.453125 -5.375 C 4.390625 -5.40625 4.304688 -5.425781 4.203125 -5.4375 C 4.109375 -5.445312 4.03125 -5.453125 3.96875 -5.453125 C 3.707031 -5.460938 3.460938 -5.441406 3.234375 -5.390625 C 3.015625 -5.347656 2.816406 -5.269531 2.640625 -5.15625 C 2.472656 -5.039062 2.335938 -4.882812 2.234375 -4.6875 C 2.140625 -4.5 2.09375 -4.273438 2.09375 -4.015625 L 2.09375 0 Z M 0.953125 0 "/></g></g></g><g fill="#a6a6a6" fill-opacity="1"><g transform="translate(161.663399, 95.788673)"><g><path d="M 3.234375 0.125 C 2.785156 0.125 2.367188 0.0546875 1.984375 -0.078125 C 1.609375 -0.222656 1.289062 -0.441406 1.03125 -0.734375 C 0.78125 -1.035156 0.625 -1.414062 0.5625 -1.875 L 1.609375 -1.875 C 1.660156 -1.625 1.757812 -1.410156 1.90625 -1.234375 C 2.0625 -1.066406 2.253906 -0.941406 2.484375 -0.859375 C 2.710938 -0.773438 2.960938 -0.734375 3.234375 -0.734375 C 3.671875 -0.734375 4.019531 -0.8125 4.28125 -0.96875 C 4.550781 -1.132812 4.6875 -1.390625 4.6875 -1.734375 C 4.6875 -1.960938 4.613281 -2.148438 4.46875 -2.296875 C 4.332031 -2.441406 4.117188 -2.546875 3.828125 -2.609375 L 2.5 -2.9375 C 1.976562 -3.0625 1.5625 -3.253906 1.25 -3.515625 C 0.9375 -3.785156 0.78125 -4.160156 0.78125 -4.640625 C 0.769531 -5.023438 0.859375 -5.359375 1.046875 -5.640625 C 1.234375 -5.929688 1.507812 -6.160156 1.875 -6.328125 C 2.238281 -6.492188 2.691406 -6.578125 3.234375 -6.578125 C 3.929688 -6.578125 4.492188 -6.414062 4.921875 -6.09375 C 5.359375 -5.78125 5.582031 -5.320312 5.59375 -4.71875 L 4.578125 -4.71875 C 4.535156 -5.03125 4.394531 -5.273438 4.15625 -5.453125 C 3.925781 -5.628906 3.613281 -5.71875 3.21875 -5.71875 C 2.8125 -5.71875 2.476562 -5.632812 2.21875 -5.46875 C 1.957031 -5.3125 1.828125 -5.0625 1.828125 -4.71875 C 1.828125 -4.488281 1.914062 -4.304688 2.09375 -4.171875 C 2.28125 -4.046875 2.554688 -3.9375 2.921875 -3.84375 L 4.203125 -3.515625 C 4.503906 -3.441406 4.75 -3.335938 4.9375 -3.203125 C 5.132812 -3.078125 5.289062 -2.9375 5.40625 -2.78125 C 5.519531 -2.625 5.597656 -2.457031 5.640625 -2.28125 C 5.691406 -2.113281 5.71875 -1.953125 5.71875 -1.796875 C 5.71875 -1.398438 5.617188 -1.054688 5.421875 -0.765625 C 5.222656 -0.484375 4.941406 -0.265625 4.578125 -0.109375 C 4.210938 0.046875 3.765625 0.125 3.234375 0.125 Z M 3.234375 0.125 "/></g></g></g><g fill="#a6a6a6" fill-opacity="1"><g transform="translate(168.042556, 95.788673)"><g><path d="M 0.6875 0 L 0.6875 -1.46875 L 2.0625 -1.46875 L 2.0625 0 Z M 0.6875 0 "/></g></g></g></svg>