<?xml version="1.0" encoding="UTF-8"?>
<svg version="1.1" xmlns="http://www.w3.org/2000/svg" width="3100" height="2553">
<path d="M0 0 C1023 0 2046 0 3100 0 C3100 842.49 3100 1684.98 3100 2553 C2077 2553 1054 2553 0 2553 C0 1710.51 0 868.02 0 0 Z " fill="#FF592B" transform="translate(0,0)"/>
<path d="M0 0 C418.97158082 0 418.97158082 0 477 54 C477.66644531 54.61230469 478.33289062 55.22460938 479.01953125 55.85546875 C506.54847812 82.15093939 524.98220513 122.61345943 526.19540215 160.66610336 C526.30372545 166.00221198 526.30511766 171.33828601 526.30639648 176.67529297 C526.31403508 178.71573687 526.32246543 180.75617793 526.33161926 182.7966156 C526.35340778 188.29930229 526.36234232 193.80193347 526.36744571 199.30465841 C526.37110892 202.75647847 526.37735907 206.20828441 526.3844471 209.66009903 C526.40889049 221.74248126 526.42198172 233.82482089 526.42553711 245.90722656 C526.42916494 257.10374376 526.45901982 268.29998563 526.50094169 279.49641883 C526.53583905 289.1615849 526.55108891 298.8266606 526.55178314 308.49188912 C526.55256957 314.24100434 526.56101183 319.98983866 526.58978081 325.73888779 C526.80752337 372.11303591 526.80752337 372.11303591 521 392 C520.74063093 392.9156007 520.48126186 393.8312014 520.21403313 394.77454758 C512.93917709 420.18481873 500.55744938 445.12308824 483 465 C482.14664062 465.98613281 481.29328125 466.97226563 480.4140625 467.98828125 C464.01146167 486.65269566 444.55824623 498.53156171 420 503 C420.96873047 503.12955078 420.96873047 503.12955078 421.95703125 503.26171875 C455.10010214 508.2037088 484.82113711 523.3540309 505.17871094 550.57617188 C510.20733515 557.49298363 514.6132867 564.69363888 518.375 572.375 C518.684375 572.98472656 518.99375 573.59445312 519.3125 574.22265625 C527.3795587 591.5142212 526.58348758 610.0779943 526.52289867 628.6781801 C526.51376348 632.83442958 526.52785959 636.99061441 526.53881836 641.14685059 C526.55652013 649.26802091 526.55280063 657.3890426 526.5411678 665.51021854 C526.53209883 672.11768168 526.53092438 678.72510344 526.53526306 685.33257103 C526.53587599 686.27644215 526.53648893 687.22031327 526.53712043 688.19278654 C526.53839946 690.11085685 526.53969632 692.02892714 526.5410108 693.94699743 C526.55239265 711.89557856 526.53934156 729.84407773 526.51780933 747.79264542 C526.49994928 763.15501756 526.50303812 778.51726872 526.52148438 793.87963867 C526.54294863 811.76355339 526.55128509 829.64739637 526.53903532 847.53132218 C526.53776127 849.44287533 526.53650378 851.3544285 526.53526306 853.26598167 C526.53464596 854.20624246 526.53402886 855.14650325 526.53339306 856.11525679 C526.52995612 862.7044578 526.53573271 869.29361288 526.54518127 875.88280678 C526.55646499 883.9279074 526.55322894 891.97285216 526.5320583 900.01793519 C526.52163146 904.11368206 526.51728061 908.20917022 526.53065491 912.30491447 C526.63535108 947.36399963 520.59648498 979.00435489 498 1007 C497.57380371 1007.53689453 497.14760742 1008.07378906 496.70849609 1008.62695312 C485.76549676 1022.32210714 473.15633294 1033.20299527 458 1042 C457.02788574 1042.56630127 457.02788574 1042.56630127 456.03613281 1043.14404297 C338.07679142 1110.86985646 23.4999247 1068 0 1068 C0 715.56 0 363.12 0 0 Z " fill="#FFFEFE" transform="translate(1375,738)"/>
<path d="M0 0 C57.75 0 115.5 0 175 0 C175.01458252 27.88185791 175.02916504 55.76371582 175.04418945 84.49047852 C175.0543651 103.10738646 175.06459109 121.72429428 175.07551575 140.34120178 C175.07620828 141.52386401 175.07690081 142.70652624 175.07761432 143.92502672 C175.10097883 183.73427673 175.12844163 223.54352281 175.15898132 263.35276794 C175.15997689 264.65188484 175.16097246 265.95100174 175.16199819 267.28948581 C175.18312897 294.83482312 175.20485787 322.38015991 175.22730538 349.92549617 C175.23858115 363.76280092 175.24973877 377.60010575 175.26078469 391.43741068 C175.26245159 393.52469247 175.26412186 395.61197426 175.26579228 397.69925604 C175.29147911 429.83360037 175.31463499 461.96794407 175.33044434 494.10229492 C175.3307842 494.79300834 175.33112406 495.48372176 175.33147423 496.19536588 C175.3369383 507.33143588 175.3421896 518.46750598 175.34741267 529.60357609 C175.36246325 561.68594431 175.37909177 593.76830822 175.40612316 625.85066891 C175.40723463 627.17010909 175.40834609 628.48954928 175.40949124 629.8489725 C175.42067626 643.02221422 175.43245715 656.19545531 175.44499113 669.36869581 C175.45115343 675.85008013 175.45720389 682.33146455 175.46318626 688.81284904 C175.46495759 690.72630387 175.46495759 690.72630387 175.46676469 692.67841434 C175.48549031 713.21732567 175.49390173 733.75622891 175.49846124 754.29514772 C175.50326438 774.9408465 175.51892139 795.58651442 175.54566566 816.23219664 C175.56122719 828.49997815 175.56845854 840.76769878 175.56376929 853.03548962 C175.56145647 861.23200756 175.56999745 869.42846799 175.58732411 877.62496782 C175.59688484 882.29416879 175.60176407 886.96324267 175.59339563 891.63244886 C175.58586392 895.88680392 175.59227449 900.14090953 175.60944067 904.39523454 C175.61320836 905.91843909 175.61205746 907.44166658 175.60515601 908.96486015 C175.50361426 933.30725219 182.34241334 956.47607844 199.53125 974.29296875 C201 976 201 976 201 978 C201.59296875 978.26683594 202.1859375 978.53367187 202.796875 978.80859375 C205.03818625 980.02065037 206.44578186 981.27935917 208.25 983.0625 C226.16694342 999.07053543 250.16188185 1004.20868185 273.54052734 1003.15966797 C285.67843054 1002.37168021 296.23394457 998.36874155 307 993 C308.59328125 992.21302734 308.59328125 992.21302734 310.21875 991.41015625 C330.59950013 980.44209467 344.48716821 960.68853835 351.4375 938.9375 C353.50677249 931.87599165 354.14865148 924.9773261 354.15821838 917.64137268 C354.16315636 916.82684834 354.16809434 916.012324 354.17318195 915.1731171 C354.18847368 912.45859368 354.19689487 909.74409376 354.20532227 907.02954102 C354.21490734 905.07779231 354.22491779 903.12604566 354.23532104 901.17430115 C354.26230794 895.88564127 354.2833511 890.59697253 354.30332303 885.30828214 C354.32522099 879.77760285 354.35259102 874.24695071 354.37937927 868.71629333 C354.42925468 858.24758139 354.4742126 847.77885433 354.51740164 837.31011289 C354.57606017 823.16060383 354.64231933 809.01113049 354.70815182 794.86165333 C354.8116459 772.57445964 354.90498866 750.28723521 355 728 C412.75 728 470.5 728 530 728 C530 839.87 530 951.74 530 1067 C355.1 1067 180.2 1067 0 1067 C0 714.89 0 362.78 0 0 Z " fill="#FFFEFE" transform="translate(2029,738)"/>
<path d="M0 0 C58.08 0 116.16 0 176 0 C176.04026156 103.72276879 176.04026156 103.72276879 176.05130005 135.8170929 C176.05169472 136.96171439 176.05208938 138.10633588 176.05249601 139.28564287 C176.0657469 177.82012267 176.07624796 216.35460272 176.08468628 254.88908386 C176.08496239 256.14676614 176.08523851 257.40444842 176.08552299 258.70024228 C176.09150895 286.0337309 176.09704929 313.36721958 176.10213066 340.70070838 C176.10449998 353.43180645 176.10695145 366.16290451 176.10946488 378.89400256 C176.10986338 380.91481599 176.11025962 382.93562941 176.11065576 384.95644284 C176.11677321 416.06127475 176.12458606 447.16610509 176.1373291 478.27093506 C176.1376029 478.93933464 176.1378767 479.60773422 176.13815879 480.29638834 C176.14258334 491.07245249 176.14715063 501.84851659 176.15173688 512.62458068 C176.17092711 557.72228276 176.18371102 602.81998267 176.18782998 647.91768894 C176.18840628 654.19399872 176.18905755 660.4703085 176.18975449 666.74661827 C176.18988933 667.98187376 176.19002418 669.21712926 176.19016311 670.48981673 C176.19252561 690.3659009 176.20179923 710.24197611 176.21366407 730.11805662 C176.22544743 750.10512865 176.22993373 770.0921918 176.22700275 790.07926718 C176.22548279 801.95072549 176.2295265 813.82215131 176.24159509 825.69360374 C176.24911222 833.63103361 176.24931511 841.56844226 176.24366363 849.50587361 C176.24065348 854.02380708 176.24073509 858.54167924 176.24976636 863.05960605 C176.31398625 897.14294011 176.31398625 897.14294011 174 913 C173.8622746 914.05619799 173.7245492 915.11239598 173.5826503 916.20059997 C169.34583042 948.34348562 155.47590846 980.6127448 134 1005 C133.2471875 1005.86238281 132.494375 1006.72476563 131.71875 1007.61328125 C129.50986544 1010.10584105 127.26743004 1012.56067093 125 1015 C124.38898438 1015.66515625 123.77796875 1016.3303125 123.1484375 1017.015625 C89.29757007 1052.45100112 38.39248043 1069.53395879 -8.65356445 1077.42504883 C-10.55166772 1077.751162 -12.44832094 1078.08700794 -14.33895874 1078.45393372 C-37.48644157 1082.88817293 -61.04701319 1083.52212942 -84.54296875 1083.44604492 C-87.51460922 1083.43684606 -90.48546398 1083.44384105 -93.45703125 1083.46655273 C-158.92512176 1083.96361918 -227.00878681 1068.70882841 -279 1027 C-280.00804687 1026.195625 -281.01609375 1025.39125 -282.0546875 1024.5625 C-295.93643476 1013.26380121 -308.53455225 1000.53237421 -319 986 C-319.40879395 985.44086914 -319.81758789 984.88173828 -320.23876953 984.30566406 C-342.76337818 953.19728093 -355.20522655 917.73673718 -355.11352539 879.44287109 C-355.11321859 877.75958572 -355.11335334 876.07630022 -355.11389065 874.39301491 C-355.11411519 869.91007519 -355.10834499 865.4271625 -355.10128021 860.94422913 C-355.09555954 856.72819947 -355.09531569 852.51217618 -355.09460449 848.29614258 C-355.08936986 835.98909151 -355.07540861 823.68204541 -355.0625 811.375 C-355.041875 783.86125 -355.02125 756.3475 -355 728 C-297.25 728 -239.5 728 -180 728 C-179.96261719 742.07011719 -179.92523437 756.14023438 -179.88671875 770.63671875 C-179.85643957 779.55534836 -179.82541329 788.47396502 -179.79101562 797.39257812 C-179.7365683 811.54564229 -179.68515352 825.69867053 -179.65356445 839.85180664 C-179.63054219 850.16038014 -179.59709698 860.46885901 -179.55129844 870.7773574 C-179.52742326 876.23222322 -179.50865712 881.68699564 -179.50238609 887.14191246 C-179.49630941 892.28422271 -179.47621665 897.42629417 -179.44572449 902.56851578 C-179.43698553 904.44811783 -179.43321301 906.32775114 -179.43499184 908.20737267 C-179.44171289 918.59331851 -178.9820655 927.97372847 -176 938 C-175.69631768 939.04899491 -175.69631768 939.04899491 -175.38650036 940.11918163 C-171.491642 952.76857469 -165.47839261 962.94263549 -157 973 C-156.08347656 974.21623047 -156.08347656 974.21623047 -155.1484375 975.45703125 C-141.45049645 991.67041238 -118.26024245 1001.22680959 -97.53613281 1003.23925781 C-73.55062905 1004.53603114 -49.90920533 997.62932437 -31.75 981.5 C-30.1609573 980.00604962 -28.57711412 978.50653759 -27 977 C-26.38511719 976.45988281 -25.77023437 975.91976562 -25.13671875 975.36328125 C-17.03438765 967.96874 -11.57315152 957.8457334 -7.125 947.9375 C-6.85107422 947.3381665 -6.57714844 946.73883301 -6.29492188 946.12133789 C-1.43345139 934.73216712 -0.56030982 923.14596244 -0.61523914 910.92307568 C-0.61130445 909.32698884 -0.60605881 907.73090479 -0.59963337 906.13482603 C-0.58580456 901.76378829 -0.59047738 897.39293985 -0.59826221 893.02189448 C-0.60342181 888.26106506 -0.59115831 883.50027468 -0.58113068 878.73945743 C-0.56595391 870.40073245 -0.56183771 862.06205927 -0.56500816 853.72332191 C-0.56967215 841.32398652 -0.55717346 828.92470971 -0.54117843 816.52538587 C-0.51475582 795.66655418 -0.50222172 774.80773578 -0.49761391 753.94888878 C-0.49300643 733.29720885 -0.48221936 712.64554737 -0.46318626 691.9938755 C-0.46200614 690.70962565 -0.46082601 689.4253758 -0.45961012 688.10220929 C-0.45358467 681.58010404 -0.44744888 675.05799889 -0.44127061 668.53589378 C-0.42876514 655.27430276 -0.41723149 642.01271091 -0.40612316 628.75111866 C-0.40556666 628.0876581 -0.40501016 627.42419754 -0.40443679 626.74063212 C-0.37746134 594.48114467 -0.3614943 562.22165304 -0.34643555 529.9621582 C-0.34120487 518.76989741 -0.33592546 507.57763665 -0.33044434 496.38537598 C-0.33010444 495.69121396 -0.32976454 494.99705194 -0.32941434 494.28185471 C-0.31354114 462.00113702 -0.28983862 429.72042646 -0.26412141 397.43971529 C-0.26245161 395.34356354 -0.26078517 393.24741179 -0.25911942 391.15126003 C-0.24807487 377.25974326 -0.23689547 363.3682266 -0.2256258 349.47671002 C-0.20266957 321.17830631 -0.18056925 292.87990197 -0.15898132 264.58149719 C-0.1579877 263.28039373 -0.15699409 261.97929027 -0.15597036 260.63875943 C-0.12556074 220.75996336 -0.09875879 180.881166 -0.07551575 141.00236511 C-0.07452383 139.30412145 -0.07452383 139.30412145 -0.07351188 137.57156983 C-0.04678223 91.7143811 -0.02387111 45.85719029 0 0 Z " fill="#FFFEFE" transform="translate(1067,738)"/>
<path d="M0 0 C136.18050987 0 136.18050987 0 151.16015625 13.96875 C183.78374 49.98629469 175.16079273 121.40393638 175.16725707 166.59687233 C175.16797873 169.44564118 175.17013345 172.29440551 175.17275429 175.14317322 C175.18194308 185.15697526 175.18609732 195.17076419 175.18530273 205.18457031 C175.18470348 214.3980267 175.1952424 223.61142427 175.2110464 232.82486582 C175.22428259 240.83781908 175.22948003 248.8507535 175.22884732 256.86371756 C175.22859703 261.60405663 175.23117973 266.34434322 175.24202538 271.08467102 C175.4968858 390.73016514 175.4968858 390.73016514 150.83984375 416.234375 C115.89508249 449.0812518 16.97908194 430 0 430 C0 288.1 0 146.2 0 0 Z " fill="#FF592B" transform="translate(1551,1288)"/>
<path d="M0 0 C135.57489879 0 135.57489879 0 150 14 C162.7673079 27.42541655 166.98474089 46.43446861 169.625 64.1875 C169.73050171 64.8790921 169.83600342 65.5706842 169.94470215 66.28323364 C171.9982203 79.80854942 173.3211823 93.33407366 174 107 C174.04130035 107.7339801 174.08260071 108.46796021 174.12515259 109.22418213 C175.30230294 130.4911712 175.18744184 151.78460175 175.18530273 173.07666016 C175.185222 177.33028463 175.19209428 181.5838002 175.20581055 185.83740234 C175.27551469 207.81248489 175.1721029 229.74340477 174.07421875 251.6953125 C174.01179521 252.94905922 174.01179521 252.94905922 173.94811058 254.22813416 C170.25596157 326.39933778 170.25596157 326.39933778 148.33984375 347.1796875 C112.43030568 375.11598923 11.19161918 358 0 358 C0 239.86 0 121.72 0 0 Z " fill="#FF592B" transform="translate(1551,839)"/>
<path d="M0 0 C106.59 0 213.18 0 323 0 C320.75008535 6.74974394 320.75008535 6.74974394 319.40625 9.79418945 C319.10340088 10.48390335 318.80055176 11.17361725 318.48852539 11.88423157 C318.16231201 12.61981796 317.83609863 13.35540436 317.5 14.11328125 C317.15251709 14.90272629 316.80503418 15.69217133 316.44702148 16.50553894 C315.30046454 19.10894691 314.15020404 21.71070155 313 24.3125 C312.18851891 26.15352104 311.3773259 27.99466909 310.56640625 29.8359375 C308.88132507 33.66146354 307.1950048 37.48643975 305.5078125 41.31103516 C302.03146546 49.19386617 298.57018445 57.08330034 295.10888672 64.9727478 C293.23998175 69.23214969 291.36992854 73.4910474 289.5 77.75 C288.74999459 79.45833096 287.99999459 81.16666429 287.25 82.875 C210.74999998 257.12500005 210.74999998 257.12500005 209.62504578 259.68739319 C208.87489069 261.39608146 208.12473811 263.10477084 207.37458801 264.8134613 C205.50198125 269.078873 203.62933139 273.34426576 201.7565918 277.60961914 C198.35307205 285.36159483 194.9498914 293.11371859 191.54827881 300.86653137 C181.72474767 323.25582071 171.87944529 345.63532284 162 368 C159.75664049 365.94238035 158.41649449 364.14730768 157.20092773 361.36279297 C156.87813843 360.63282104 156.55534912 359.90284912 156.22277832 359.15075684 C155.87984741 358.35592896 155.5369165 357.56110107 155.18359375 356.7421875 C154.63112976 355.48492859 154.63112976 355.48492859 154.06750488 354.20227051 C152.85089201 351.42935681 151.64424374 348.65222115 150.4375 345.875 C149.58408093 343.92500126 148.72998582 341.97529827 147.87524414 340.02587891 C146.10980865 335.99669502 144.34822902 331.96585933 142.58984375 327.93359375 C140.19412021 322.44124169 137.78716085 316.95389996 135.375 311.46875 C134.63223168 309.77946454 133.88947445 308.09017421 133.14672852 306.40087891 C132.78233673 305.57211243 132.41794495 304.74334595 132.04251099 303.88946533 C130.18111094 299.65382791 128.32296484 295.41676415 126.46484375 291.1796875 C122.35431984 281.80689922 118.24063026 272.4355035 114.12600708 263.06451416 C112.25053421 258.79306967 110.37527796 254.52153007 108.5 250.25 C107.75000104 248.54166621 107.00000104 246.83333288 106.25 245.125 C47.75000003 111.87500007 47.75000003 111.87500007 46.62506104 109.31263733 C45.87485925 107.6038455 45.1246558 105.8950544 44.37445068 104.18626404 C42.50252438 99.92245165 40.63062676 95.65862668 38.75878906 91.39477539 C34.57295259 81.85997132 30.3865729 72.3254063 26.19882202 62.79144287 C24.30080098 58.47004003 22.40360456 54.14827894 20.50830078 49.82568359 C19.77379277 48.1507031 19.03925527 46.47573554 18.3046875 44.80078125 C17.76686142 43.57442963 17.76686142 43.57442963 17.21817017 42.32330322 C15.08610971 37.46506977 12.94488271 32.6110064 10.79541016 27.76045227 C9.46399678 24.75464952 8.13656613 21.74709732 6.80969238 18.73928833 C6.19246876 17.34311915 5.57328405 15.94781509 4.95202637 14.55343628 C4.10629888 12.65495486 3.26724896 10.75365745 2.4296875 8.8515625 C1.95772949 7.78760254 1.48577148 6.72364258 0.99951172 5.62744141 C0 3 0 3 0 0 Z " fill="#FFFEFE" transform="translate(638,738)"/>
<path d="M0 0 C18.94569223 15.54175183 32.46138175 38.02306193 36.58984375 62.30419922 C36.80611558 66.58736443 36.81798282 70.86869122 36.83007812 75.15698242 C36.83966965 77.20453343 36.87067537 79.2510288 36.90234375 81.29833984 C37.12529045 108.68435015 25.43837878 132.98286979 6.77734375 152.55419922 C-14.8921252 173.38115383 -41.66812536 180.86797476 -71.05078125 180.58544922 C-79.65984816 180.36683401 -87.26747887 179.01248579 -95.41015625 176.30419922 C-96.52648437 175.95357422 -97.6428125 175.60294922 -98.79296875 175.24169922 C-123.65119948 166.61619265 -144.14109028 147.55527192 -155.6953125 124.08935547 C-158.53019648 118.01057439 -160.61387485 111.76809061 -162.41015625 105.30419922 C-162.72984375 104.18271484 -163.04953125 103.06123047 -163.37890625 101.90576172 C-170.09857687 74.21822998 -163.9461258 47.18774769 -149.41796875 23.24560547 C-136.31928243 4.05628485 -118.15146054 -9.70307536 -96.41015625 -17.69580078 C-95.27449219 -18.13021484 -94.13882813 -18.56462891 -92.96875 -19.01220703 C-61.54056834 -28.9132917 -25.48555478 -19.9006592 0 0 Z " fill="#FFFEFE" transform="translate(863.41015625,1168.69580078125)"/>
<path d="M0 0 C1023 0 2046 0 3100 0 C3100 1.32 3100 2.64 3100 4 C2077 4 1054 4 0 4 C0 2.68 0 1.36 0 0 Z " fill="#FFF9F8" transform="translate(0,2549)"/>
</svg>
